G04 (created by PCBNEW (2013-07-07 BZR 4022)-stable) date 10/6/2014 4:48:18 PM*
%MOIN*%
G04 Gerber Fmt 3.4, Leading zero omitted, Abs format*
%FSLAX34Y34*%
G01*
G70*
G90*
G04 APERTURE LIST*
%ADD10C,0.00590551*%
%ADD11R,0.0276X0.0394*%
%ADD12R,0.0236X0.0551*%
%ADD13R,0.1575X0.1102*%
%ADD14R,0.0551X0.0236*%
%ADD15R,0.1102X0.1575*%
%ADD16R,0.06X0.08*%
%ADD17R,0.08X0.06*%
%ADD18R,0.06X0.06*%
%ADD19C,0.06*%
%ADD20C,0.16*%
G04 APERTURE END LIST*
G54D10*
G54D11*
X48275Y-32300D03*
X47900Y-32300D03*
X47525Y-32300D03*
X47525Y-33300D03*
X47900Y-33300D03*
X48275Y-33300D03*
G54D12*
X36250Y-28150D03*
X36250Y-26050D03*
X36750Y-28150D03*
X37250Y-28150D03*
X37750Y-28150D03*
X36750Y-26050D03*
X37250Y-26050D03*
X37750Y-26050D03*
G54D13*
X37000Y-27100D03*
G54D12*
X54250Y-24750D03*
X54250Y-22650D03*
X54750Y-24750D03*
X55250Y-24750D03*
X55750Y-24750D03*
X54750Y-22650D03*
X55250Y-22650D03*
X55750Y-22650D03*
G54D13*
X55000Y-23700D03*
G54D14*
X69150Y-23950D03*
X67050Y-23950D03*
X69150Y-23450D03*
X69150Y-22950D03*
X69150Y-22450D03*
X67050Y-23450D03*
X67050Y-22950D03*
X67050Y-22450D03*
G54D15*
X68100Y-23200D03*
G54D16*
X52450Y-31800D03*
X51150Y-31800D03*
X47150Y-34200D03*
X48450Y-34200D03*
G54D17*
X50100Y-31950D03*
X50100Y-30650D03*
X34900Y-26350D03*
X34900Y-27650D03*
X52800Y-22850D03*
X52800Y-24150D03*
G54D16*
X67450Y-25400D03*
X68750Y-25400D03*
G54D17*
X65300Y-23850D03*
X65300Y-22550D03*
G54D16*
X36650Y-24500D03*
X37950Y-24500D03*
X54550Y-21000D03*
X55850Y-21000D03*
G54D18*
X46900Y-30000D03*
G54D19*
X45900Y-30000D03*
X44900Y-30000D03*
G54D18*
X48600Y-28500D03*
G54D19*
X48600Y-29500D03*
X48600Y-30500D03*
G54D20*
X71500Y-13500D03*
X71500Y-34500D03*
X31500Y-34500D03*
X36500Y-13500D03*
M02*
