G04 (created by PCBNEW (2013-07-07 BZR 4022)-stable) date 10/6/2014 4:48:17 PM*
%MOIN*%
G04 Gerber Fmt 3.4, Leading zero omitted, Abs format*
%FSLAX34Y34*%
G01*
G70*
G90*
G04 APERTURE LIST*
%ADD10C,0.00590551*%
%ADD11R,0.09X0.045*%
%ADD12R,0.2755X0.4252*%
%ADD13R,0.045X0.09*%
%ADD14R,0.4252X0.2755*%
%ADD15R,0.06X0.08*%
%ADD16R,0.08X0.06*%
%ADD17R,0.06X0.06*%
%ADD18C,0.06*%
%ADD19R,0.063X0.1181*%
%ADD20R,0.16X0.16*%
%ADD21R,0.19685X0.19685*%
%ADD22C,0.16*%
%ADD23C,0.035*%
%ADD24C,0.05*%
%ADD25C,0.1*%
%ADD26C,0.02*%
%ADD27C,0.2*%
%ADD28C,0.01*%
G04 APERTURE END LIST*
G54D10*
G54D11*
X67800Y-20200D03*
G54D12*
X63550Y-19200D03*
G54D11*
X67800Y-18200D03*
X67800Y-19200D03*
X53200Y-17800D03*
G54D12*
X57450Y-18800D03*
G54D11*
X53200Y-19800D03*
X53200Y-18800D03*
G54D13*
X64500Y-22700D03*
G54D14*
X63500Y-26950D03*
G54D13*
X62500Y-22700D03*
X63500Y-22700D03*
X59000Y-22700D03*
G54D14*
X58000Y-26950D03*
G54D13*
X57000Y-22700D03*
X58000Y-22700D03*
X41000Y-29750D03*
G54D14*
X42000Y-25500D03*
G54D13*
X43000Y-29750D03*
X42000Y-29750D03*
X38250Y-23250D03*
G54D14*
X39250Y-19000D03*
G54D13*
X40250Y-23250D03*
X39250Y-23250D03*
G54D15*
X51850Y-25100D03*
X50550Y-25100D03*
X51850Y-26400D03*
X50550Y-26400D03*
X48050Y-25100D03*
X49350Y-25100D03*
X45650Y-25100D03*
X46950Y-25100D03*
X49650Y-23700D03*
X50950Y-23700D03*
X45550Y-26800D03*
X46850Y-26800D03*
G54D16*
X33600Y-19850D03*
X33600Y-21150D03*
G54D17*
X46900Y-30000D03*
G54D18*
X45900Y-30000D03*
X44900Y-30000D03*
G54D17*
X48600Y-28500D03*
G54D18*
X48600Y-29500D03*
X48600Y-30500D03*
G54D19*
X51800Y-27734D03*
X51800Y-29466D03*
X35600Y-19634D03*
X35600Y-21366D03*
X54300Y-27734D03*
X54300Y-29466D03*
G54D20*
X50300Y-34300D03*
X52500Y-34300D03*
X41100Y-32800D03*
X46600Y-32800D03*
X31500Y-24100D03*
X31500Y-19300D03*
X44300Y-32800D03*
X67200Y-27300D03*
X63300Y-15400D03*
X57500Y-15300D03*
X71400Y-21400D03*
X71400Y-24100D03*
X56700Y-31700D03*
X54400Y-31700D03*
X37700Y-32000D03*
X35200Y-31900D03*
G54D21*
X44478Y-22846D03*
X48021Y-22846D03*
X46250Y-16153D03*
G54D20*
X31500Y-15600D03*
G54D15*
X59850Y-16000D03*
X61150Y-16000D03*
X59850Y-14500D03*
X61150Y-14500D03*
G54D22*
X71500Y-13500D03*
X71500Y-34500D03*
X31500Y-34500D03*
X36500Y-13500D03*
G54D23*
X56700Y-21500D03*
X55200Y-21800D03*
X53600Y-24800D03*
X67000Y-21800D03*
X66200Y-23100D03*
X69100Y-24600D03*
X41700Y-23500D03*
X37300Y-25300D03*
X35600Y-28600D03*
X51000Y-22700D03*
X53100Y-26600D03*
X49900Y-29900D03*
X49200Y-26400D03*
X48750Y-33100D03*
X68000Y-24550D03*
X55000Y-23700D03*
X34150Y-28250D03*
X37000Y-27100D03*
X68900Y-26600D03*
X52800Y-25300D03*
X51500Y-32800D03*
X70000Y-22300D03*
X37700Y-29100D03*
X37100Y-29100D03*
X70100Y-23300D03*
X56700Y-30000D03*
X55200Y-30200D03*
X47700Y-26100D03*
X41900Y-31150D03*
X49000Y-32300D03*
X33800Y-17300D03*
X40700Y-14700D03*
G54D24*
X57500Y-15300D02*
X59850Y-15300D01*
X59850Y-16000D02*
X59850Y-15300D01*
X59850Y-15300D02*
X59850Y-14500D01*
G54D25*
X57450Y-18800D02*
X57450Y-15350D01*
X57450Y-15350D02*
X57500Y-15300D01*
G54D24*
X57450Y-18800D02*
X57450Y-21350D01*
X57450Y-21350D02*
X57000Y-21800D01*
X57000Y-21800D02*
X57000Y-22700D01*
G54D26*
X57000Y-21800D02*
X57000Y-22700D01*
X56700Y-21500D02*
X57000Y-21800D01*
X59000Y-23600D02*
X59000Y-22700D01*
X58500Y-24100D02*
X59000Y-23600D01*
X56600Y-24100D02*
X58500Y-24100D01*
X55700Y-23200D02*
X56600Y-24100D01*
X55700Y-22300D02*
X55700Y-23200D01*
X55200Y-21800D02*
X55700Y-22300D01*
X52500Y-17800D02*
X53200Y-17800D01*
X52200Y-18100D02*
X52500Y-17800D01*
X52200Y-20600D02*
X52200Y-18100D01*
X53500Y-21900D02*
X52200Y-20600D01*
X53500Y-24700D02*
X53500Y-21900D01*
X53600Y-24800D02*
X53500Y-24700D01*
G54D24*
X63300Y-15400D02*
X61150Y-15400D01*
X61150Y-16000D02*
X61150Y-15400D01*
X61150Y-15400D02*
X61150Y-14500D01*
G54D25*
X63550Y-19200D02*
X63550Y-15650D01*
X63550Y-15650D02*
X63300Y-15400D01*
G54D26*
X63550Y-20150D02*
X63550Y-19200D01*
X65000Y-21600D02*
X63550Y-20150D01*
X66800Y-21600D02*
X65000Y-21600D01*
X67000Y-21800D02*
X66800Y-21600D01*
G54D24*
X62500Y-22700D02*
X62500Y-20250D01*
X62500Y-20250D02*
X63550Y-19200D01*
G54D26*
X65000Y-23200D02*
X64500Y-22700D01*
X66100Y-23200D02*
X65000Y-23200D01*
X66200Y-23100D02*
X66100Y-23200D01*
X67800Y-23300D02*
X67800Y-20200D01*
X69100Y-24600D02*
X67800Y-23300D01*
X45650Y-25100D02*
X45650Y-24018D01*
X45650Y-24018D02*
X44478Y-22846D01*
X41700Y-23500D02*
X42000Y-23500D01*
G54D27*
X42000Y-25500D02*
X42000Y-23500D01*
X42000Y-23500D02*
X42000Y-23392D01*
X42000Y-23392D02*
X41453Y-22846D01*
X44478Y-22846D02*
X41453Y-22846D01*
G54D24*
X40950Y-23250D02*
X41000Y-23300D01*
G54D27*
X41453Y-22846D02*
X41000Y-23300D01*
G54D24*
X40950Y-23250D02*
X40250Y-23250D01*
G54D26*
X38250Y-24350D02*
X38250Y-23250D01*
X37300Y-25300D02*
X38250Y-24350D01*
X40550Y-29750D02*
X41000Y-29750D01*
X39400Y-28600D02*
X40550Y-29750D01*
X35600Y-28600D02*
X39400Y-28600D01*
G54D24*
X67200Y-27300D02*
X63850Y-27300D01*
X63850Y-27300D02*
X63500Y-26950D01*
G54D26*
X50950Y-22750D02*
X50950Y-23700D01*
X51000Y-22700D02*
X50950Y-22750D01*
X53100Y-26600D02*
X53100Y-27734D01*
G54D25*
X63500Y-26950D02*
X58000Y-26950D01*
X54300Y-27734D02*
X57216Y-27734D01*
X57216Y-27734D02*
X58000Y-26950D01*
G54D24*
X51800Y-27734D02*
X53100Y-27734D01*
X53100Y-27734D02*
X53300Y-27734D01*
X53300Y-27734D02*
X54300Y-27734D01*
X51850Y-26400D02*
X51850Y-27684D01*
X51850Y-27684D02*
X51800Y-27734D01*
X51850Y-25100D02*
X51850Y-26400D01*
X50950Y-23700D02*
X51700Y-23700D01*
X51850Y-23850D02*
X51850Y-25100D01*
X51700Y-23700D02*
X51850Y-23850D01*
X67800Y-18200D02*
X67800Y-13600D01*
X54400Y-19800D02*
X53200Y-19800D01*
X54600Y-19600D02*
X54400Y-19800D01*
X54600Y-13300D02*
X54600Y-19600D01*
X54500Y-13200D02*
X54600Y-13300D01*
X67400Y-13200D02*
X54500Y-13200D01*
X67800Y-13600D02*
X67400Y-13200D01*
X54300Y-29466D02*
X69634Y-29466D01*
X69000Y-18200D02*
X67800Y-18200D01*
X69200Y-18400D02*
X69000Y-18200D01*
X69200Y-23500D02*
X69200Y-18400D01*
X69800Y-24100D02*
X69200Y-23500D01*
X69800Y-29300D02*
X69800Y-24100D01*
X69634Y-29466D02*
X69800Y-29300D01*
G54D26*
X49800Y-29800D02*
X49800Y-27100D01*
X49900Y-29900D02*
X49800Y-29800D01*
X44900Y-30000D02*
X44900Y-29500D01*
X47300Y-27100D02*
X47700Y-27100D01*
X44900Y-29500D02*
X47300Y-27100D01*
G54D24*
X46850Y-26800D02*
X47100Y-26800D01*
X47400Y-27100D02*
X47700Y-27100D01*
X47100Y-26800D02*
X47400Y-27100D01*
X47700Y-27100D02*
X49100Y-27100D01*
X49100Y-27100D02*
X49800Y-27100D01*
X49800Y-27100D02*
X50550Y-27100D01*
X51800Y-29466D02*
X50666Y-29466D01*
X50550Y-29350D02*
X50550Y-27900D01*
X50550Y-27900D02*
X50550Y-27400D01*
X50550Y-27400D02*
X50550Y-27100D01*
X50550Y-27100D02*
X50550Y-26400D01*
X50666Y-29466D02*
X50550Y-29350D01*
X51800Y-29466D02*
X54300Y-29466D01*
G54D26*
X44900Y-30000D02*
X44900Y-32200D01*
X44900Y-32200D02*
X44300Y-32800D01*
G54D24*
X50550Y-25100D02*
X50550Y-26400D01*
G54D26*
X46900Y-30000D02*
X46900Y-32500D01*
X46900Y-32500D02*
X46600Y-32800D01*
X49650Y-23700D02*
X49650Y-24800D01*
X49650Y-24800D02*
X49350Y-25100D01*
X49200Y-26400D02*
X49350Y-26250D01*
X49350Y-26250D02*
X49350Y-25100D01*
G54D24*
X48021Y-22846D02*
X48796Y-22846D01*
X48796Y-22846D02*
X49650Y-23700D01*
G54D26*
X55000Y-23700D02*
X55000Y-23650D01*
G54D24*
X45550Y-26800D02*
X45550Y-27200D01*
X45550Y-27200D02*
X43700Y-29050D01*
X43700Y-29050D02*
X43000Y-29750D01*
G54D26*
X52500Y-33800D02*
X52500Y-34300D01*
X51500Y-32800D02*
X52500Y-33800D01*
X70900Y-21400D02*
X71400Y-21400D01*
X70000Y-22300D02*
X70900Y-21400D01*
G54D24*
X35600Y-19634D02*
X38616Y-19634D01*
X38616Y-19634D02*
X39250Y-19000D01*
X33600Y-19850D02*
X35384Y-19850D01*
X35384Y-19850D02*
X35600Y-19634D01*
X33600Y-19850D02*
X32050Y-19850D01*
X32050Y-19850D02*
X31500Y-19300D01*
G54D26*
X37700Y-29100D02*
X37700Y-32000D01*
X35200Y-31000D02*
X35200Y-31900D01*
X37100Y-29100D02*
X35200Y-31000D01*
X70900Y-24100D02*
X71400Y-24100D01*
X70100Y-23300D02*
X70900Y-24100D01*
X56700Y-30000D02*
X56700Y-31700D01*
X54400Y-31000D02*
X54400Y-31700D01*
X55200Y-30200D02*
X54400Y-31000D01*
X41100Y-32800D02*
X41100Y-31950D01*
X48050Y-25750D02*
X48050Y-25100D01*
X47700Y-26100D02*
X48050Y-25750D01*
X41100Y-31950D02*
X41900Y-31150D01*
X46950Y-25100D02*
X48050Y-25100D01*
X50300Y-33600D02*
X50300Y-34300D01*
X49000Y-32300D02*
X50300Y-33600D01*
X32100Y-15600D02*
X31500Y-15600D01*
G54D24*
X33800Y-17300D02*
X32100Y-15600D01*
X39800Y-15600D02*
X31500Y-15600D01*
X40700Y-14700D02*
X39800Y-15600D01*
G54D10*
G36*
X72950Y-35950D02*
X72550Y-35950D01*
X72550Y-34292D01*
X72550Y-13292D01*
X72390Y-12906D01*
X72095Y-12610D01*
X71709Y-12450D01*
X71292Y-12449D01*
X70906Y-12609D01*
X70610Y-12904D01*
X70450Y-13290D01*
X70449Y-13707D01*
X70609Y-14094D01*
X70904Y-14389D01*
X71290Y-14549D01*
X71707Y-14550D01*
X72094Y-14390D01*
X72389Y-14095D01*
X72549Y-13709D01*
X72550Y-13292D01*
X72550Y-34292D01*
X72450Y-34049D01*
X72450Y-24850D01*
X72450Y-23250D01*
X72412Y-23158D01*
X72341Y-23088D01*
X72249Y-23050D01*
X72150Y-23049D01*
X70550Y-23049D01*
X70470Y-23083D01*
X70460Y-23059D01*
X70341Y-22939D01*
X70184Y-22875D01*
X70015Y-22874D01*
X69859Y-22939D01*
X69739Y-23058D01*
X69700Y-23155D01*
X69700Y-22601D01*
X69758Y-22660D01*
X69915Y-22724D01*
X70084Y-22725D01*
X70240Y-22660D01*
X70360Y-22541D01*
X70424Y-22384D01*
X70424Y-22378D01*
X70458Y-22411D01*
X70550Y-22449D01*
X70649Y-22450D01*
X72249Y-22450D01*
X72341Y-22412D01*
X72411Y-22341D01*
X72449Y-22249D01*
X72450Y-22150D01*
X72450Y-20550D01*
X72412Y-20458D01*
X72341Y-20388D01*
X72249Y-20350D01*
X72150Y-20349D01*
X70550Y-20349D01*
X70458Y-20387D01*
X70388Y-20458D01*
X70350Y-20550D01*
X70349Y-20649D01*
X70349Y-21455D01*
X69930Y-21874D01*
X69915Y-21874D01*
X69759Y-21939D01*
X69700Y-21998D01*
X69700Y-18400D01*
X69661Y-18208D01*
X69553Y-18046D01*
X69553Y-18046D01*
X69353Y-17846D01*
X69191Y-17738D01*
X69000Y-17699D01*
X68999Y-17700D01*
X68300Y-17700D01*
X68300Y-13600D01*
X68299Y-13599D01*
X68300Y-13599D01*
X68292Y-13561D01*
X68261Y-13408D01*
X68261Y-13408D01*
X68153Y-13246D01*
X68153Y-13246D01*
X67753Y-12846D01*
X67591Y-12738D01*
X67400Y-12699D01*
X67399Y-12700D01*
X54500Y-12700D01*
X54500Y-12699D01*
X54308Y-12738D01*
X54146Y-12846D01*
X54038Y-13008D01*
X53999Y-13200D01*
X54038Y-13391D01*
X54100Y-13484D01*
X54100Y-19300D01*
X53200Y-19300D01*
X53074Y-19324D01*
X52700Y-19324D01*
X52608Y-19362D01*
X52550Y-19421D01*
X52550Y-19178D01*
X52608Y-19236D01*
X52700Y-19274D01*
X52799Y-19275D01*
X53699Y-19275D01*
X53791Y-19237D01*
X53861Y-19166D01*
X53899Y-19074D01*
X53900Y-18975D01*
X53900Y-18525D01*
X53862Y-18433D01*
X53791Y-18363D01*
X53699Y-18325D01*
X53600Y-18324D01*
X52700Y-18324D01*
X52608Y-18362D01*
X52550Y-18421D01*
X52550Y-18244D01*
X52583Y-18211D01*
X52608Y-18236D01*
X52700Y-18274D01*
X52799Y-18275D01*
X53699Y-18275D01*
X53791Y-18237D01*
X53861Y-18166D01*
X53899Y-18074D01*
X53900Y-17975D01*
X53900Y-17525D01*
X53862Y-17433D01*
X53791Y-17363D01*
X53699Y-17325D01*
X53600Y-17324D01*
X52700Y-17324D01*
X52608Y-17362D01*
X52538Y-17433D01*
X52531Y-17450D01*
X52500Y-17450D01*
X52499Y-17450D01*
X52366Y-17476D01*
X52252Y-17552D01*
X52252Y-17552D01*
X51952Y-17852D01*
X51876Y-17966D01*
X51850Y-18100D01*
X51850Y-20600D01*
X51876Y-20733D01*
X51952Y-20847D01*
X53150Y-22044D01*
X53150Y-24700D01*
X53174Y-24825D01*
X53174Y-24825D01*
X53174Y-24884D01*
X53239Y-25040D01*
X53358Y-25160D01*
X53515Y-25224D01*
X53684Y-25225D01*
X53840Y-25160D01*
X53960Y-25041D01*
X54024Y-24884D01*
X54025Y-24715D01*
X53960Y-24559D01*
X53850Y-24448D01*
X53850Y-21900D01*
X53823Y-21766D01*
X53823Y-21766D01*
X53747Y-21652D01*
X52550Y-20455D01*
X52550Y-20178D01*
X52608Y-20236D01*
X52700Y-20274D01*
X52799Y-20275D01*
X53074Y-20275D01*
X53200Y-20300D01*
X54399Y-20300D01*
X54400Y-20300D01*
X54400Y-20300D01*
X54591Y-20261D01*
X54753Y-20153D01*
X54953Y-19953D01*
X54953Y-19953D01*
X54953Y-19953D01*
X55061Y-19791D01*
X55100Y-19600D01*
X55100Y-13700D01*
X67192Y-13700D01*
X67300Y-13807D01*
X67300Y-17725D01*
X67208Y-17762D01*
X67138Y-17833D01*
X67100Y-17925D01*
X67099Y-18024D01*
X67099Y-18474D01*
X67137Y-18566D01*
X67208Y-18636D01*
X67300Y-18674D01*
X67399Y-18675D01*
X67674Y-18675D01*
X67800Y-18700D01*
X68700Y-18700D01*
X68700Y-23499D01*
X68699Y-23500D01*
X68738Y-23691D01*
X68842Y-23847D01*
X68150Y-23155D01*
X68150Y-20675D01*
X68299Y-20675D01*
X68391Y-20637D01*
X68461Y-20566D01*
X68499Y-20474D01*
X68500Y-20375D01*
X68500Y-19925D01*
X68500Y-19375D01*
X68500Y-18925D01*
X68462Y-18833D01*
X68391Y-18763D01*
X68299Y-18725D01*
X68200Y-18724D01*
X67300Y-18724D01*
X67208Y-18762D01*
X67138Y-18833D01*
X67100Y-18925D01*
X67099Y-19024D01*
X67099Y-19474D01*
X67137Y-19566D01*
X67208Y-19636D01*
X67300Y-19674D01*
X67399Y-19675D01*
X68299Y-19675D01*
X68391Y-19637D01*
X68461Y-19566D01*
X68499Y-19474D01*
X68500Y-19375D01*
X68500Y-19925D01*
X68462Y-19833D01*
X68391Y-19763D01*
X68299Y-19725D01*
X68200Y-19724D01*
X67300Y-19724D01*
X67208Y-19762D01*
X67138Y-19833D01*
X67100Y-19925D01*
X67099Y-20024D01*
X67099Y-20474D01*
X67137Y-20566D01*
X67208Y-20636D01*
X67300Y-20674D01*
X67399Y-20675D01*
X67450Y-20675D01*
X67450Y-23300D01*
X67476Y-23433D01*
X67552Y-23547D01*
X68674Y-24669D01*
X68674Y-24684D01*
X68739Y-24840D01*
X68858Y-24960D01*
X69015Y-25024D01*
X69184Y-25025D01*
X69300Y-24977D01*
X69300Y-28966D01*
X68250Y-28966D01*
X68250Y-28050D01*
X68250Y-26450D01*
X68212Y-26358D01*
X68141Y-26288D01*
X68049Y-26250D01*
X67950Y-26249D01*
X67425Y-26249D01*
X67425Y-21715D01*
X67360Y-21559D01*
X67241Y-21439D01*
X67084Y-21375D01*
X67070Y-21375D01*
X67047Y-21352D01*
X66933Y-21276D01*
X66800Y-21250D01*
X65177Y-21250D01*
X65177Y-17024D01*
X65139Y-16932D01*
X65069Y-16862D01*
X64977Y-16824D01*
X64877Y-16823D01*
X64300Y-16823D01*
X64300Y-16353D01*
X64311Y-16341D01*
X64349Y-16249D01*
X64350Y-16150D01*
X64350Y-14550D01*
X64312Y-14458D01*
X64241Y-14388D01*
X64149Y-14350D01*
X64050Y-14349D01*
X62450Y-14349D01*
X62358Y-14387D01*
X62288Y-14458D01*
X62250Y-14550D01*
X62249Y-14649D01*
X62249Y-14900D01*
X61699Y-14900D01*
X61700Y-14850D01*
X61700Y-14050D01*
X61662Y-13958D01*
X61591Y-13888D01*
X61499Y-13850D01*
X61400Y-13849D01*
X60800Y-13849D01*
X60708Y-13887D01*
X60638Y-13958D01*
X60600Y-14050D01*
X60599Y-14149D01*
X60599Y-14949D01*
X60637Y-15041D01*
X60650Y-15053D01*
X60650Y-15400D01*
X60650Y-15446D01*
X60638Y-15458D01*
X60600Y-15550D01*
X60599Y-15649D01*
X60599Y-16449D01*
X60637Y-16541D01*
X60708Y-16611D01*
X60800Y-16649D01*
X60899Y-16650D01*
X61499Y-16650D01*
X61591Y-16612D01*
X61661Y-16541D01*
X61699Y-16449D01*
X61700Y-16350D01*
X61700Y-15900D01*
X62249Y-15900D01*
X62249Y-16249D01*
X62287Y-16341D01*
X62358Y-16411D01*
X62450Y-16449D01*
X62549Y-16450D01*
X62800Y-16450D01*
X62800Y-16823D01*
X62122Y-16823D01*
X62031Y-16861D01*
X61960Y-16932D01*
X61922Y-17024D01*
X61922Y-17123D01*
X61922Y-21375D01*
X61960Y-21467D01*
X62000Y-21507D01*
X62000Y-22700D01*
X62024Y-22825D01*
X62024Y-23199D01*
X62062Y-23291D01*
X62133Y-23361D01*
X62225Y-23399D01*
X62324Y-23400D01*
X62774Y-23400D01*
X62866Y-23362D01*
X62936Y-23291D01*
X62974Y-23199D01*
X62975Y-23100D01*
X62975Y-22825D01*
X63000Y-22700D01*
X63000Y-21576D01*
X64481Y-21576D01*
X64752Y-21847D01*
X64866Y-21923D01*
X65000Y-21950D01*
X66602Y-21950D01*
X66639Y-22040D01*
X66758Y-22160D01*
X66915Y-22224D01*
X67084Y-22225D01*
X67240Y-22160D01*
X67360Y-22041D01*
X67424Y-21884D01*
X67425Y-21715D01*
X67425Y-26249D01*
X66625Y-26249D01*
X66625Y-23015D01*
X66560Y-22859D01*
X66441Y-22739D01*
X66284Y-22675D01*
X66115Y-22674D01*
X65959Y-22739D01*
X65848Y-22850D01*
X65144Y-22850D01*
X64975Y-22680D01*
X64975Y-22200D01*
X64937Y-22108D01*
X64866Y-22038D01*
X64774Y-22000D01*
X64675Y-21999D01*
X64225Y-21999D01*
X64133Y-22037D01*
X64063Y-22108D01*
X64025Y-22200D01*
X64024Y-22299D01*
X64024Y-23199D01*
X64062Y-23291D01*
X64133Y-23361D01*
X64225Y-23399D01*
X64324Y-23400D01*
X64705Y-23400D01*
X64752Y-23447D01*
X64866Y-23523D01*
X64866Y-23523D01*
X65000Y-23550D01*
X66100Y-23550D01*
X66225Y-23525D01*
X66225Y-23525D01*
X66284Y-23525D01*
X66440Y-23460D01*
X66560Y-23341D01*
X66624Y-23184D01*
X66625Y-23015D01*
X66625Y-26249D01*
X66350Y-26249D01*
X66258Y-26287D01*
X66188Y-26358D01*
X66150Y-26450D01*
X66149Y-26549D01*
X66149Y-26800D01*
X65876Y-26800D01*
X65876Y-25522D01*
X65838Y-25431D01*
X65767Y-25360D01*
X65675Y-25322D01*
X65576Y-25322D01*
X63975Y-25322D01*
X63975Y-23100D01*
X63975Y-22200D01*
X63937Y-22108D01*
X63866Y-22038D01*
X63774Y-22000D01*
X63675Y-21999D01*
X63225Y-21999D01*
X63133Y-22037D01*
X63063Y-22108D01*
X63025Y-22200D01*
X63024Y-22299D01*
X63024Y-23199D01*
X63062Y-23291D01*
X63133Y-23361D01*
X63225Y-23399D01*
X63324Y-23400D01*
X63774Y-23400D01*
X63866Y-23362D01*
X63936Y-23291D01*
X63974Y-23199D01*
X63975Y-23100D01*
X63975Y-25322D01*
X61324Y-25322D01*
X61232Y-25360D01*
X61162Y-25430D01*
X61124Y-25522D01*
X61123Y-25622D01*
X61123Y-26200D01*
X60400Y-26200D01*
X60400Y-16350D01*
X60400Y-15550D01*
X60362Y-15458D01*
X60350Y-15446D01*
X60350Y-15300D01*
X60350Y-15053D01*
X60361Y-15041D01*
X60399Y-14949D01*
X60400Y-14850D01*
X60400Y-14050D01*
X60362Y-13958D01*
X60291Y-13888D01*
X60199Y-13850D01*
X60100Y-13849D01*
X59500Y-13849D01*
X59408Y-13887D01*
X59338Y-13958D01*
X59300Y-14050D01*
X59299Y-14149D01*
X59299Y-14800D01*
X58550Y-14800D01*
X58550Y-14450D01*
X58512Y-14358D01*
X58441Y-14288D01*
X58349Y-14250D01*
X58250Y-14249D01*
X56650Y-14249D01*
X56558Y-14287D01*
X56488Y-14358D01*
X56450Y-14450D01*
X56449Y-14549D01*
X56449Y-16149D01*
X56487Y-16241D01*
X56558Y-16311D01*
X56650Y-16349D01*
X56700Y-16349D01*
X56700Y-16423D01*
X56022Y-16423D01*
X55931Y-16461D01*
X55860Y-16532D01*
X55822Y-16624D01*
X55822Y-16723D01*
X55822Y-20975D01*
X55860Y-21067D01*
X55930Y-21137D01*
X56022Y-21175D01*
X56122Y-21176D01*
X56422Y-21176D01*
X56339Y-21258D01*
X56275Y-21415D01*
X56274Y-21584D01*
X56339Y-21740D01*
X56458Y-21860D01*
X56500Y-21877D01*
X56500Y-22700D01*
X56524Y-22825D01*
X56524Y-23199D01*
X56562Y-23291D01*
X56633Y-23361D01*
X56725Y-23399D01*
X56824Y-23400D01*
X57274Y-23400D01*
X57366Y-23362D01*
X57436Y-23291D01*
X57474Y-23199D01*
X57475Y-23100D01*
X57475Y-22825D01*
X57500Y-22700D01*
X57500Y-22007D01*
X57803Y-21703D01*
X57911Y-21541D01*
X57950Y-21350D01*
X57950Y-21176D01*
X58877Y-21176D01*
X58968Y-21138D01*
X59039Y-21067D01*
X59077Y-20975D01*
X59077Y-20876D01*
X59077Y-16624D01*
X59039Y-16532D01*
X58969Y-16462D01*
X58877Y-16424D01*
X58777Y-16423D01*
X58200Y-16423D01*
X58200Y-16350D01*
X58349Y-16350D01*
X58441Y-16312D01*
X58511Y-16241D01*
X58549Y-16149D01*
X58550Y-16050D01*
X58550Y-15800D01*
X59299Y-15800D01*
X59299Y-16449D01*
X59337Y-16541D01*
X59408Y-16611D01*
X59500Y-16649D01*
X59599Y-16650D01*
X60199Y-16650D01*
X60291Y-16612D01*
X60361Y-16541D01*
X60399Y-16449D01*
X60400Y-16350D01*
X60400Y-26200D01*
X60376Y-26200D01*
X60376Y-25522D01*
X60338Y-25431D01*
X60267Y-25360D01*
X60175Y-25322D01*
X60076Y-25322D01*
X59475Y-25322D01*
X59475Y-23100D01*
X59475Y-22200D01*
X59437Y-22108D01*
X59366Y-22038D01*
X59274Y-22000D01*
X59175Y-21999D01*
X58725Y-21999D01*
X58633Y-22037D01*
X58563Y-22108D01*
X58525Y-22200D01*
X58524Y-22299D01*
X58524Y-23199D01*
X58562Y-23291D01*
X58633Y-23361D01*
X58650Y-23368D01*
X58650Y-23455D01*
X58475Y-23629D01*
X58475Y-23100D01*
X58475Y-22200D01*
X58437Y-22108D01*
X58366Y-22038D01*
X58274Y-22000D01*
X58175Y-21999D01*
X57725Y-21999D01*
X57633Y-22037D01*
X57563Y-22108D01*
X57525Y-22200D01*
X57524Y-22299D01*
X57524Y-23199D01*
X57562Y-23291D01*
X57633Y-23361D01*
X57725Y-23399D01*
X57824Y-23400D01*
X58274Y-23400D01*
X58366Y-23362D01*
X58436Y-23291D01*
X58474Y-23199D01*
X58475Y-23100D01*
X58475Y-23629D01*
X58355Y-23750D01*
X56744Y-23750D01*
X56050Y-23055D01*
X56050Y-22300D01*
X56023Y-22166D01*
X56023Y-22166D01*
X55947Y-22052D01*
X55625Y-21730D01*
X55625Y-21715D01*
X55560Y-21559D01*
X55441Y-21439D01*
X55284Y-21375D01*
X55115Y-21374D01*
X54959Y-21439D01*
X54839Y-21558D01*
X54775Y-21715D01*
X54774Y-21884D01*
X54839Y-22040D01*
X54958Y-22160D01*
X55115Y-22224D01*
X55129Y-22224D01*
X55350Y-22444D01*
X55350Y-23200D01*
X55376Y-23333D01*
X55452Y-23447D01*
X56352Y-24347D01*
X56466Y-24423D01*
X56466Y-24423D01*
X56600Y-24450D01*
X58500Y-24450D01*
X58633Y-24423D01*
X58633Y-24423D01*
X58747Y-24347D01*
X59247Y-23847D01*
X59323Y-23733D01*
X59323Y-23733D01*
X59350Y-23600D01*
X59350Y-23368D01*
X59366Y-23362D01*
X59436Y-23291D01*
X59474Y-23199D01*
X59475Y-23100D01*
X59475Y-25322D01*
X55824Y-25322D01*
X55732Y-25360D01*
X55662Y-25430D01*
X55624Y-25522D01*
X55623Y-25622D01*
X55623Y-26984D01*
X54809Y-26984D01*
X54756Y-26931D01*
X54664Y-26893D01*
X54565Y-26893D01*
X53935Y-26893D01*
X53843Y-26931D01*
X53773Y-27001D01*
X53735Y-27093D01*
X53734Y-27193D01*
X53734Y-27234D01*
X53450Y-27234D01*
X53450Y-26851D01*
X53460Y-26841D01*
X53524Y-26684D01*
X53525Y-26515D01*
X53460Y-26359D01*
X53341Y-26239D01*
X53184Y-26175D01*
X53015Y-26174D01*
X52859Y-26239D01*
X52739Y-26358D01*
X52675Y-26515D01*
X52674Y-26684D01*
X52739Y-26840D01*
X52750Y-26850D01*
X52750Y-27234D01*
X52365Y-27234D01*
X52365Y-27093D01*
X52350Y-27057D01*
X52350Y-26953D01*
X52361Y-26941D01*
X52399Y-26849D01*
X52400Y-26750D01*
X52400Y-25950D01*
X52362Y-25858D01*
X52350Y-25846D01*
X52350Y-25653D01*
X52361Y-25641D01*
X52399Y-25549D01*
X52400Y-25450D01*
X52400Y-24650D01*
X52362Y-24558D01*
X52350Y-24546D01*
X52350Y-23850D01*
X52311Y-23658D01*
X52203Y-23496D01*
X52203Y-23496D01*
X52053Y-23346D01*
X51891Y-23238D01*
X51700Y-23199D01*
X51699Y-23200D01*
X51479Y-23200D01*
X51462Y-23158D01*
X51391Y-23088D01*
X51300Y-23050D01*
X51300Y-23001D01*
X51360Y-22941D01*
X51424Y-22784D01*
X51425Y-22615D01*
X51360Y-22459D01*
X51241Y-22339D01*
X51084Y-22275D01*
X50915Y-22274D01*
X50759Y-22339D01*
X50639Y-22458D01*
X50575Y-22615D01*
X50574Y-22784D01*
X50600Y-22844D01*
X50600Y-23050D01*
X50508Y-23087D01*
X50438Y-23158D01*
X50400Y-23250D01*
X50399Y-23349D01*
X50399Y-24149D01*
X50437Y-24241D01*
X50508Y-24311D01*
X50600Y-24349D01*
X50699Y-24350D01*
X51299Y-24350D01*
X51350Y-24329D01*
X51350Y-24546D01*
X51338Y-24558D01*
X51300Y-24650D01*
X51299Y-24749D01*
X51299Y-25549D01*
X51337Y-25641D01*
X51350Y-25653D01*
X51350Y-25846D01*
X51338Y-25858D01*
X51300Y-25950D01*
X51299Y-26049D01*
X51299Y-26849D01*
X51336Y-26938D01*
X51273Y-27001D01*
X51235Y-27093D01*
X51234Y-27193D01*
X51234Y-28374D01*
X51272Y-28465D01*
X51343Y-28536D01*
X51435Y-28574D01*
X51534Y-28574D01*
X52164Y-28574D01*
X52256Y-28536D01*
X52326Y-28466D01*
X52364Y-28374D01*
X52365Y-28274D01*
X52365Y-28234D01*
X53100Y-28234D01*
X53300Y-28234D01*
X53734Y-28234D01*
X53734Y-28374D01*
X53772Y-28465D01*
X53843Y-28536D01*
X53935Y-28574D01*
X54034Y-28574D01*
X54664Y-28574D01*
X54756Y-28536D01*
X54809Y-28484D01*
X55676Y-28484D01*
X55732Y-28539D01*
X55824Y-28577D01*
X55923Y-28577D01*
X60175Y-28577D01*
X60267Y-28539D01*
X60337Y-28469D01*
X60375Y-28377D01*
X60376Y-28277D01*
X60376Y-27700D01*
X61123Y-27700D01*
X61123Y-28377D01*
X61161Y-28468D01*
X61232Y-28539D01*
X61324Y-28577D01*
X61423Y-28577D01*
X65675Y-28577D01*
X65767Y-28539D01*
X65837Y-28469D01*
X65875Y-28377D01*
X65876Y-28277D01*
X65876Y-27800D01*
X66149Y-27800D01*
X66149Y-28149D01*
X66187Y-28241D01*
X66258Y-28311D01*
X66350Y-28349D01*
X66449Y-28350D01*
X68049Y-28350D01*
X68141Y-28312D01*
X68211Y-28241D01*
X68249Y-28149D01*
X68250Y-28050D01*
X68250Y-28966D01*
X54865Y-28966D01*
X54865Y-28825D01*
X54827Y-28734D01*
X54756Y-28663D01*
X54664Y-28625D01*
X54565Y-28625D01*
X53935Y-28625D01*
X53843Y-28663D01*
X53773Y-28733D01*
X53735Y-28825D01*
X53734Y-28925D01*
X53734Y-28966D01*
X52365Y-28966D01*
X52365Y-28825D01*
X52327Y-28734D01*
X52256Y-28663D01*
X52164Y-28625D01*
X52065Y-28625D01*
X51435Y-28625D01*
X51343Y-28663D01*
X51273Y-28733D01*
X51235Y-28825D01*
X51234Y-28925D01*
X51234Y-28966D01*
X51050Y-28966D01*
X51050Y-27900D01*
X51050Y-27400D01*
X51050Y-27100D01*
X51050Y-26953D01*
X51061Y-26941D01*
X51099Y-26849D01*
X51100Y-26750D01*
X51100Y-25950D01*
X51062Y-25858D01*
X51050Y-25846D01*
X51050Y-25653D01*
X51061Y-25641D01*
X51099Y-25549D01*
X51100Y-25450D01*
X51100Y-24650D01*
X51062Y-24558D01*
X50991Y-24488D01*
X50899Y-24450D01*
X50800Y-24449D01*
X50200Y-24449D01*
X50108Y-24487D01*
X50038Y-24558D01*
X50000Y-24650D01*
X50000Y-24700D01*
X50000Y-24349D01*
X50091Y-24312D01*
X50161Y-24241D01*
X50199Y-24149D01*
X50200Y-24050D01*
X50200Y-23250D01*
X50162Y-23158D01*
X50091Y-23088D01*
X49999Y-23050D01*
X49900Y-23049D01*
X49707Y-23049D01*
X49255Y-22598D01*
X49255Y-21812D01*
X49217Y-21720D01*
X49147Y-21650D01*
X49055Y-21612D01*
X48956Y-21612D01*
X47484Y-21612D01*
X47484Y-17088D01*
X47484Y-15119D01*
X47446Y-15027D01*
X47376Y-14957D01*
X47284Y-14919D01*
X47184Y-14919D01*
X45216Y-14919D01*
X45124Y-14957D01*
X45053Y-15027D01*
X45015Y-15119D01*
X45015Y-15218D01*
X45015Y-17187D01*
X45053Y-17279D01*
X45123Y-17349D01*
X45215Y-17387D01*
X45315Y-17387D01*
X47283Y-17387D01*
X47375Y-17349D01*
X47446Y-17279D01*
X47484Y-17187D01*
X47484Y-17088D01*
X47484Y-21612D01*
X46987Y-21612D01*
X46895Y-21650D01*
X46825Y-21720D01*
X46787Y-21812D01*
X46787Y-21911D01*
X46787Y-23880D01*
X46825Y-23972D01*
X46895Y-24042D01*
X46987Y-24080D01*
X47086Y-24080D01*
X49055Y-24080D01*
X49099Y-24062D01*
X49099Y-24149D01*
X49137Y-24241D01*
X49208Y-24311D01*
X49300Y-24349D01*
X49300Y-24449D01*
X49000Y-24449D01*
X48908Y-24487D01*
X48838Y-24558D01*
X48800Y-24650D01*
X48799Y-24749D01*
X48799Y-25549D01*
X48837Y-25641D01*
X48908Y-25711D01*
X49000Y-25749D01*
X49000Y-26022D01*
X48959Y-26039D01*
X48839Y-26158D01*
X48775Y-26315D01*
X48774Y-26484D01*
X48822Y-26600D01*
X47700Y-26600D01*
X47607Y-26600D01*
X47473Y-26465D01*
X47615Y-26524D01*
X47784Y-26525D01*
X47940Y-26460D01*
X48060Y-26341D01*
X48124Y-26184D01*
X48124Y-26170D01*
X48297Y-25997D01*
X48297Y-25997D01*
X48297Y-25997D01*
X48373Y-25883D01*
X48399Y-25750D01*
X48400Y-25750D01*
X48400Y-25749D01*
X48491Y-25712D01*
X48561Y-25641D01*
X48599Y-25549D01*
X48600Y-25450D01*
X48600Y-24650D01*
X48562Y-24558D01*
X48491Y-24488D01*
X48399Y-24450D01*
X48300Y-24449D01*
X47700Y-24449D01*
X47608Y-24487D01*
X47538Y-24558D01*
X47500Y-24650D01*
X47500Y-24650D01*
X47462Y-24558D01*
X47391Y-24488D01*
X47299Y-24450D01*
X47200Y-24449D01*
X46600Y-24449D01*
X46508Y-24487D01*
X46438Y-24558D01*
X46400Y-24650D01*
X46399Y-24749D01*
X46399Y-25549D01*
X46437Y-25641D01*
X46508Y-25711D01*
X46600Y-25749D01*
X46699Y-25750D01*
X47299Y-25750D01*
X47391Y-25712D01*
X47461Y-25641D01*
X47499Y-25549D01*
X47499Y-25549D01*
X47499Y-25549D01*
X47537Y-25641D01*
X47584Y-25687D01*
X47459Y-25739D01*
X47339Y-25858D01*
X47275Y-26015D01*
X47274Y-26181D01*
X47199Y-26150D01*
X47100Y-26149D01*
X46500Y-26149D01*
X46408Y-26187D01*
X46338Y-26258D01*
X46300Y-26350D01*
X46299Y-26449D01*
X46299Y-27249D01*
X46337Y-27341D01*
X46408Y-27411D01*
X46468Y-27436D01*
X46200Y-27704D01*
X46200Y-25450D01*
X46200Y-24650D01*
X46162Y-24558D01*
X46091Y-24488D01*
X46000Y-24450D01*
X46000Y-24018D01*
X45973Y-23884D01*
X45897Y-23770D01*
X45712Y-23585D01*
X45712Y-22925D01*
X45728Y-22846D01*
X45712Y-22767D01*
X45712Y-21812D01*
X45674Y-21720D01*
X45604Y-21650D01*
X45512Y-21612D01*
X45413Y-21612D01*
X44557Y-21612D01*
X44478Y-21596D01*
X41626Y-21596D01*
X41626Y-20327D01*
X41626Y-17572D01*
X41588Y-17481D01*
X41517Y-17410D01*
X41425Y-17372D01*
X41326Y-17372D01*
X41200Y-17372D01*
X41200Y-14700D01*
X41161Y-14508D01*
X41053Y-14346D01*
X40891Y-14238D01*
X40700Y-14200D01*
X40508Y-14238D01*
X40346Y-14346D01*
X39592Y-15100D01*
X37550Y-15100D01*
X37550Y-13292D01*
X37390Y-12906D01*
X37095Y-12610D01*
X36709Y-12450D01*
X36292Y-12449D01*
X35906Y-12609D01*
X35610Y-12904D01*
X35450Y-13290D01*
X35449Y-13707D01*
X35609Y-14094D01*
X35904Y-14389D01*
X36290Y-14549D01*
X36707Y-14550D01*
X37094Y-14390D01*
X37389Y-14095D01*
X37549Y-13709D01*
X37550Y-13292D01*
X37550Y-15100D01*
X32550Y-15100D01*
X32550Y-14750D01*
X32512Y-14658D01*
X32441Y-14588D01*
X32349Y-14550D01*
X32250Y-14549D01*
X30650Y-14549D01*
X30558Y-14587D01*
X30488Y-14658D01*
X30450Y-14750D01*
X30449Y-14849D01*
X30449Y-16449D01*
X30487Y-16541D01*
X30558Y-16611D01*
X30650Y-16649D01*
X30749Y-16650D01*
X32349Y-16650D01*
X32415Y-16622D01*
X33446Y-17653D01*
X33608Y-17761D01*
X33800Y-17800D01*
X33991Y-17761D01*
X34153Y-17653D01*
X34261Y-17491D01*
X34300Y-17300D01*
X34261Y-17108D01*
X34153Y-16946D01*
X33307Y-16100D01*
X39799Y-16100D01*
X39800Y-16100D01*
X39800Y-16100D01*
X39991Y-16061D01*
X40153Y-15953D01*
X41053Y-15053D01*
X41161Y-14891D01*
X41200Y-14700D01*
X41200Y-17372D01*
X37074Y-17372D01*
X36982Y-17410D01*
X36912Y-17480D01*
X36874Y-17572D01*
X36873Y-17672D01*
X36873Y-19134D01*
X36165Y-19134D01*
X36165Y-18993D01*
X36127Y-18902D01*
X36056Y-18831D01*
X35964Y-18793D01*
X35865Y-18793D01*
X35235Y-18793D01*
X35143Y-18831D01*
X35073Y-18901D01*
X35035Y-18993D01*
X35034Y-19093D01*
X35034Y-19350D01*
X34153Y-19350D01*
X34141Y-19338D01*
X34049Y-19300D01*
X33950Y-19299D01*
X33150Y-19299D01*
X33058Y-19337D01*
X33046Y-19350D01*
X32550Y-19350D01*
X32550Y-18450D01*
X32512Y-18358D01*
X32441Y-18288D01*
X32349Y-18250D01*
X32250Y-18249D01*
X30650Y-18249D01*
X30558Y-18287D01*
X30488Y-18358D01*
X30450Y-18450D01*
X30449Y-18549D01*
X30449Y-20149D01*
X30487Y-20241D01*
X30558Y-20311D01*
X30650Y-20349D01*
X30749Y-20350D01*
X32349Y-20350D01*
X32349Y-20350D01*
X33046Y-20350D01*
X33058Y-20361D01*
X33150Y-20399D01*
X33249Y-20400D01*
X34049Y-20400D01*
X34141Y-20362D01*
X34153Y-20350D01*
X35066Y-20350D01*
X35072Y-20365D01*
X35143Y-20436D01*
X35235Y-20474D01*
X35334Y-20474D01*
X35964Y-20474D01*
X36056Y-20436D01*
X36126Y-20366D01*
X36164Y-20274D01*
X36165Y-20174D01*
X36165Y-20134D01*
X36873Y-20134D01*
X36873Y-20427D01*
X36911Y-20518D01*
X36982Y-20589D01*
X37074Y-20627D01*
X37173Y-20627D01*
X41425Y-20627D01*
X41517Y-20589D01*
X41587Y-20519D01*
X41625Y-20427D01*
X41626Y-20327D01*
X41626Y-21596D01*
X41453Y-21596D01*
X40975Y-21691D01*
X40569Y-21962D01*
X40116Y-22416D01*
X40026Y-22549D01*
X39975Y-22549D01*
X39883Y-22587D01*
X39813Y-22658D01*
X39775Y-22750D01*
X39774Y-22849D01*
X39774Y-23124D01*
X39750Y-23250D01*
X39754Y-23274D01*
X39750Y-23300D01*
X39774Y-23425D01*
X39774Y-23749D01*
X39812Y-23841D01*
X39843Y-23872D01*
X39824Y-23872D01*
X39732Y-23910D01*
X39725Y-23917D01*
X39725Y-23650D01*
X39725Y-22750D01*
X39687Y-22658D01*
X39616Y-22588D01*
X39524Y-22550D01*
X39425Y-22549D01*
X38975Y-22549D01*
X38883Y-22587D01*
X38813Y-22658D01*
X38775Y-22750D01*
X38774Y-22849D01*
X38774Y-23749D01*
X38812Y-23841D01*
X38883Y-23911D01*
X38975Y-23949D01*
X39074Y-23950D01*
X39524Y-23950D01*
X39616Y-23912D01*
X39686Y-23841D01*
X39724Y-23749D01*
X39725Y-23650D01*
X39725Y-23917D01*
X39662Y-23980D01*
X39624Y-24072D01*
X39623Y-24172D01*
X39623Y-26927D01*
X39661Y-27018D01*
X39732Y-27089D01*
X39824Y-27127D01*
X39923Y-27127D01*
X44175Y-27127D01*
X44267Y-27089D01*
X44337Y-27019D01*
X44375Y-26927D01*
X44376Y-26827D01*
X44376Y-24096D01*
X44478Y-24096D01*
X44557Y-24080D01*
X45217Y-24080D01*
X45300Y-24163D01*
X45300Y-24450D01*
X45208Y-24487D01*
X45138Y-24558D01*
X45100Y-24650D01*
X45099Y-24749D01*
X45099Y-25549D01*
X45137Y-25641D01*
X45208Y-25711D01*
X45300Y-25749D01*
X45399Y-25750D01*
X45999Y-25750D01*
X46091Y-25712D01*
X46161Y-25641D01*
X46199Y-25549D01*
X46200Y-25450D01*
X46200Y-27704D01*
X46100Y-27804D01*
X46100Y-27150D01*
X46100Y-26449D01*
X46099Y-26350D01*
X46061Y-26258D01*
X45991Y-26187D01*
X45899Y-26149D01*
X45662Y-26150D01*
X45600Y-26212D01*
X45600Y-26750D01*
X46037Y-26750D01*
X46100Y-26687D01*
X46100Y-26449D01*
X46100Y-27150D01*
X46100Y-26912D01*
X46037Y-26850D01*
X45600Y-26850D01*
X45600Y-27387D01*
X45662Y-27450D01*
X45899Y-27450D01*
X45991Y-27412D01*
X46061Y-27341D01*
X46099Y-27249D01*
X46100Y-27150D01*
X46100Y-27804D01*
X45500Y-28405D01*
X45500Y-27387D01*
X45500Y-26850D01*
X45500Y-26750D01*
X45500Y-26212D01*
X45437Y-26150D01*
X45200Y-26149D01*
X45108Y-26187D01*
X45038Y-26258D01*
X45000Y-26350D01*
X44999Y-26449D01*
X45000Y-26687D01*
X45062Y-26750D01*
X45500Y-26750D01*
X45500Y-26850D01*
X45062Y-26850D01*
X45000Y-26912D01*
X44999Y-27150D01*
X45000Y-27249D01*
X45038Y-27341D01*
X45108Y-27412D01*
X45200Y-27450D01*
X45437Y-27450D01*
X45500Y-27387D01*
X45500Y-28405D01*
X44652Y-29252D01*
X44576Y-29366D01*
X44550Y-29500D01*
X44550Y-29572D01*
X44434Y-29688D01*
X44350Y-29890D01*
X44349Y-30108D01*
X44433Y-30311D01*
X44550Y-30427D01*
X44550Y-31749D01*
X43475Y-31749D01*
X43475Y-30150D01*
X43475Y-29349D01*
X43474Y-29250D01*
X43436Y-29158D01*
X43366Y-29087D01*
X43274Y-29049D01*
X43112Y-29050D01*
X43050Y-29112D01*
X43050Y-29700D01*
X43412Y-29700D01*
X43475Y-29637D01*
X43475Y-29349D01*
X43475Y-30150D01*
X43475Y-29862D01*
X43412Y-29800D01*
X43050Y-29800D01*
X43050Y-30387D01*
X43112Y-30450D01*
X43274Y-30450D01*
X43366Y-30412D01*
X43436Y-30341D01*
X43474Y-30249D01*
X43475Y-30150D01*
X43475Y-31749D01*
X43450Y-31749D01*
X43358Y-31787D01*
X43288Y-31858D01*
X43250Y-31950D01*
X43249Y-32049D01*
X43249Y-33649D01*
X43287Y-33741D01*
X43358Y-33811D01*
X43450Y-33849D01*
X43549Y-33850D01*
X45149Y-33850D01*
X45241Y-33812D01*
X45311Y-33741D01*
X45349Y-33649D01*
X45350Y-33550D01*
X45350Y-31950D01*
X45312Y-31858D01*
X45250Y-31796D01*
X45250Y-30427D01*
X45365Y-30311D01*
X45399Y-30230D01*
X45433Y-30311D01*
X45588Y-30465D01*
X45790Y-30549D01*
X46008Y-30550D01*
X46211Y-30466D01*
X46349Y-30327D01*
X46349Y-30349D01*
X46387Y-30441D01*
X46458Y-30511D01*
X46550Y-30549D01*
X46550Y-31749D01*
X45750Y-31749D01*
X45658Y-31787D01*
X45588Y-31858D01*
X45550Y-31950D01*
X45549Y-32049D01*
X45549Y-33649D01*
X45587Y-33741D01*
X45658Y-33811D01*
X45750Y-33849D01*
X45849Y-33850D01*
X47449Y-33850D01*
X47541Y-33812D01*
X47611Y-33741D01*
X47649Y-33649D01*
X47650Y-33550D01*
X47650Y-31950D01*
X47612Y-31858D01*
X47541Y-31788D01*
X47449Y-31750D01*
X47350Y-31749D01*
X47250Y-31749D01*
X47250Y-30549D01*
X47341Y-30512D01*
X47411Y-30441D01*
X47449Y-30349D01*
X47450Y-30250D01*
X47450Y-29650D01*
X47412Y-29558D01*
X47341Y-29488D01*
X47249Y-29450D01*
X47150Y-29449D01*
X46550Y-29449D01*
X46458Y-29487D01*
X46388Y-29558D01*
X46350Y-29650D01*
X46350Y-29672D01*
X46211Y-29534D01*
X46009Y-29450D01*
X45791Y-29449D01*
X45588Y-29533D01*
X45434Y-29688D01*
X45400Y-29769D01*
X45366Y-29688D01*
X45286Y-29608D01*
X47312Y-27582D01*
X47399Y-27600D01*
X47399Y-27599D01*
X47400Y-27600D01*
X47700Y-27600D01*
X49100Y-27600D01*
X49450Y-27600D01*
X49450Y-29800D01*
X49474Y-29925D01*
X49474Y-29925D01*
X49474Y-29984D01*
X49539Y-30140D01*
X49658Y-30260D01*
X49815Y-30324D01*
X49984Y-30325D01*
X50140Y-30260D01*
X50260Y-30141D01*
X50324Y-29984D01*
X50325Y-29827D01*
X50474Y-29927D01*
X50474Y-29927D01*
X50627Y-29958D01*
X50665Y-29966D01*
X50665Y-29965D01*
X50666Y-29966D01*
X51234Y-29966D01*
X51234Y-30106D01*
X51272Y-30197D01*
X51343Y-30268D01*
X51435Y-30306D01*
X51534Y-30306D01*
X52164Y-30306D01*
X52256Y-30268D01*
X52326Y-30198D01*
X52364Y-30106D01*
X52365Y-30006D01*
X52365Y-29966D01*
X53734Y-29966D01*
X53734Y-30106D01*
X53772Y-30197D01*
X53843Y-30268D01*
X53935Y-30306D01*
X54034Y-30306D01*
X54598Y-30306D01*
X54255Y-30649D01*
X53550Y-30649D01*
X53458Y-30687D01*
X53388Y-30758D01*
X53350Y-30850D01*
X53349Y-30949D01*
X53349Y-32549D01*
X53387Y-32641D01*
X53458Y-32711D01*
X53550Y-32749D01*
X53649Y-32750D01*
X55249Y-32750D01*
X55341Y-32712D01*
X55411Y-32641D01*
X55449Y-32549D01*
X55450Y-32450D01*
X55450Y-30850D01*
X55412Y-30758D01*
X55341Y-30688D01*
X55249Y-30650D01*
X55244Y-30650D01*
X55269Y-30625D01*
X55284Y-30625D01*
X55440Y-30560D01*
X55560Y-30441D01*
X55624Y-30284D01*
X55625Y-30115D01*
X55563Y-29966D01*
X56275Y-29966D01*
X56274Y-30084D01*
X56339Y-30240D01*
X56350Y-30250D01*
X56350Y-30649D01*
X55850Y-30649D01*
X55758Y-30687D01*
X55688Y-30758D01*
X55650Y-30850D01*
X55649Y-30949D01*
X55649Y-32549D01*
X55687Y-32641D01*
X55758Y-32711D01*
X55850Y-32749D01*
X55949Y-32750D01*
X57549Y-32750D01*
X57641Y-32712D01*
X57711Y-32641D01*
X57749Y-32549D01*
X57750Y-32450D01*
X57750Y-30850D01*
X57712Y-30758D01*
X57641Y-30688D01*
X57549Y-30650D01*
X57450Y-30649D01*
X57050Y-30649D01*
X57050Y-30251D01*
X57060Y-30241D01*
X57124Y-30084D01*
X57125Y-29966D01*
X69633Y-29966D01*
X69634Y-29966D01*
X69634Y-29966D01*
X69825Y-29927D01*
X69987Y-29819D01*
X70153Y-29653D01*
X70261Y-29491D01*
X70300Y-29300D01*
X70300Y-29300D01*
X70300Y-29299D01*
X70300Y-24100D01*
X70273Y-23968D01*
X70349Y-24044D01*
X70349Y-24949D01*
X70387Y-25041D01*
X70458Y-25111D01*
X70550Y-25149D01*
X70649Y-25150D01*
X72249Y-25150D01*
X72341Y-25112D01*
X72411Y-25041D01*
X72449Y-24949D01*
X72450Y-24850D01*
X72450Y-34049D01*
X72390Y-33906D01*
X72095Y-33610D01*
X71709Y-33450D01*
X71292Y-33449D01*
X70906Y-33609D01*
X70610Y-33904D01*
X70450Y-34290D01*
X70449Y-34707D01*
X70609Y-35094D01*
X70904Y-35389D01*
X71290Y-35549D01*
X71707Y-35550D01*
X72094Y-35390D01*
X72389Y-35095D01*
X72549Y-34709D01*
X72550Y-34292D01*
X72550Y-35950D01*
X53550Y-35950D01*
X53550Y-35050D01*
X53550Y-33450D01*
X53512Y-33358D01*
X53441Y-33288D01*
X53349Y-33250D01*
X53250Y-33249D01*
X52444Y-33249D01*
X51925Y-32730D01*
X51925Y-32715D01*
X51860Y-32559D01*
X51741Y-32439D01*
X51584Y-32375D01*
X51415Y-32374D01*
X51259Y-32439D01*
X51139Y-32558D01*
X51075Y-32715D01*
X51074Y-32884D01*
X51139Y-33040D01*
X51258Y-33160D01*
X51415Y-33224D01*
X51429Y-33224D01*
X51525Y-33320D01*
X51488Y-33358D01*
X51450Y-33450D01*
X51449Y-33549D01*
X51449Y-35149D01*
X51487Y-35241D01*
X51558Y-35311D01*
X51650Y-35349D01*
X51749Y-35350D01*
X53349Y-35350D01*
X53441Y-35312D01*
X53511Y-35241D01*
X53549Y-35149D01*
X53550Y-35050D01*
X53550Y-35950D01*
X51350Y-35950D01*
X51350Y-35050D01*
X51350Y-33450D01*
X51312Y-33358D01*
X51241Y-33288D01*
X51149Y-33250D01*
X51050Y-33249D01*
X50444Y-33249D01*
X49425Y-32230D01*
X49425Y-32215D01*
X49360Y-32059D01*
X49241Y-31939D01*
X49154Y-31904D01*
X49154Y-30581D01*
X49150Y-30488D01*
X49150Y-29391D01*
X49066Y-29188D01*
X48927Y-29050D01*
X48949Y-29050D01*
X49041Y-29012D01*
X49111Y-28941D01*
X49149Y-28849D01*
X49150Y-28750D01*
X49150Y-28150D01*
X49112Y-28058D01*
X49041Y-27988D01*
X48949Y-27950D01*
X48850Y-27949D01*
X48250Y-27949D01*
X48158Y-27987D01*
X48088Y-28058D01*
X48050Y-28150D01*
X48049Y-28249D01*
X48049Y-28849D01*
X48087Y-28941D01*
X48158Y-29011D01*
X48250Y-29049D01*
X48272Y-29049D01*
X48134Y-29188D01*
X48050Y-29390D01*
X48049Y-29608D01*
X48133Y-29811D01*
X48288Y-29965D01*
X48363Y-29997D01*
X48312Y-30018D01*
X48284Y-30114D01*
X48600Y-30429D01*
X48915Y-30114D01*
X48887Y-30018D01*
X48832Y-29999D01*
X48911Y-29966D01*
X49065Y-29811D01*
X49149Y-29609D01*
X49150Y-29391D01*
X49150Y-30488D01*
X49143Y-30363D01*
X49081Y-30212D01*
X48985Y-30184D01*
X48670Y-30500D01*
X48985Y-30815D01*
X49081Y-30787D01*
X49154Y-30581D01*
X49154Y-31904D01*
X49084Y-31875D01*
X48915Y-31874D01*
X48915Y-31875D01*
X48915Y-30885D01*
X48600Y-30570D01*
X48529Y-30641D01*
X48529Y-30500D01*
X48214Y-30184D01*
X48118Y-30212D01*
X48045Y-30418D01*
X48056Y-30636D01*
X48118Y-30787D01*
X48214Y-30815D01*
X48529Y-30500D01*
X48529Y-30641D01*
X48284Y-30885D01*
X48312Y-30981D01*
X48518Y-31054D01*
X48736Y-31043D01*
X48887Y-30981D01*
X48915Y-30885D01*
X48915Y-31875D01*
X48759Y-31939D01*
X48639Y-32058D01*
X48575Y-32215D01*
X48574Y-32384D01*
X48639Y-32540D01*
X48758Y-32660D01*
X48915Y-32724D01*
X48929Y-32724D01*
X49454Y-33249D01*
X49450Y-33249D01*
X49358Y-33287D01*
X49288Y-33358D01*
X49250Y-33450D01*
X49249Y-33549D01*
X49249Y-35149D01*
X49287Y-35241D01*
X49358Y-35311D01*
X49450Y-35349D01*
X49549Y-35350D01*
X51149Y-35350D01*
X51241Y-35312D01*
X51311Y-35241D01*
X51349Y-35149D01*
X51350Y-35050D01*
X51350Y-35950D01*
X42950Y-35950D01*
X42950Y-30387D01*
X42950Y-29800D01*
X42950Y-29700D01*
X42950Y-29112D01*
X42887Y-29050D01*
X42725Y-29049D01*
X42633Y-29087D01*
X42563Y-29158D01*
X42525Y-29250D01*
X42524Y-29349D01*
X42525Y-29637D01*
X42587Y-29700D01*
X42950Y-29700D01*
X42950Y-29800D01*
X42587Y-29800D01*
X42525Y-29862D01*
X42524Y-30150D01*
X42525Y-30249D01*
X42563Y-30341D01*
X42633Y-30412D01*
X42725Y-30450D01*
X42887Y-30450D01*
X42950Y-30387D01*
X42950Y-35950D01*
X42475Y-35950D01*
X42475Y-30150D01*
X42475Y-29250D01*
X42437Y-29158D01*
X42366Y-29088D01*
X42274Y-29050D01*
X42175Y-29049D01*
X41725Y-29049D01*
X41633Y-29087D01*
X41563Y-29158D01*
X41525Y-29250D01*
X41524Y-29349D01*
X41524Y-30249D01*
X41562Y-30341D01*
X41633Y-30411D01*
X41725Y-30449D01*
X41824Y-30450D01*
X42274Y-30450D01*
X42366Y-30412D01*
X42436Y-30341D01*
X42474Y-30249D01*
X42475Y-30150D01*
X42475Y-35950D01*
X42325Y-35950D01*
X42325Y-31065D01*
X42260Y-30909D01*
X42141Y-30789D01*
X41984Y-30725D01*
X41815Y-30724D01*
X41659Y-30789D01*
X41539Y-30908D01*
X41475Y-31065D01*
X41475Y-31079D01*
X41475Y-31079D01*
X41475Y-30150D01*
X41475Y-29250D01*
X41437Y-29158D01*
X41366Y-29088D01*
X41274Y-29050D01*
X41175Y-29049D01*
X40725Y-29049D01*
X40633Y-29087D01*
X40563Y-29158D01*
X40530Y-29235D01*
X39647Y-28352D01*
X39533Y-28276D01*
X39400Y-28250D01*
X38725Y-28250D01*
X38725Y-23650D01*
X38725Y-22750D01*
X38687Y-22658D01*
X38616Y-22588D01*
X38524Y-22550D01*
X38425Y-22549D01*
X37975Y-22549D01*
X37883Y-22587D01*
X37813Y-22658D01*
X37775Y-22750D01*
X37774Y-22849D01*
X37774Y-23749D01*
X37812Y-23841D01*
X37883Y-23911D01*
X37900Y-23918D01*
X37900Y-24205D01*
X37230Y-24874D01*
X37215Y-24874D01*
X37059Y-24939D01*
X36939Y-25058D01*
X36875Y-25215D01*
X36874Y-25384D01*
X36939Y-25540D01*
X37058Y-25660D01*
X37215Y-25724D01*
X37384Y-25725D01*
X37540Y-25660D01*
X37660Y-25541D01*
X37724Y-25384D01*
X37724Y-25370D01*
X38497Y-24597D01*
X38573Y-24483D01*
X38600Y-24350D01*
X38600Y-23918D01*
X38616Y-23912D01*
X38686Y-23841D01*
X38724Y-23749D01*
X38725Y-23650D01*
X38725Y-28250D01*
X36165Y-28250D01*
X36165Y-22006D01*
X36165Y-20725D01*
X36127Y-20634D01*
X36056Y-20563D01*
X35964Y-20525D01*
X35865Y-20525D01*
X35712Y-20525D01*
X35650Y-20588D01*
X35650Y-21316D01*
X36102Y-21316D01*
X36165Y-21253D01*
X36165Y-20725D01*
X36165Y-22006D01*
X36165Y-21478D01*
X36102Y-21416D01*
X35650Y-21416D01*
X35650Y-22144D01*
X35712Y-22206D01*
X35865Y-22206D01*
X35964Y-22206D01*
X36056Y-22168D01*
X36127Y-22097D01*
X36165Y-22006D01*
X36165Y-28250D01*
X35851Y-28250D01*
X35841Y-28239D01*
X35684Y-28175D01*
X35550Y-28174D01*
X35550Y-22144D01*
X35550Y-21416D01*
X35550Y-21316D01*
X35550Y-20588D01*
X35487Y-20525D01*
X35334Y-20525D01*
X35235Y-20525D01*
X35143Y-20563D01*
X35072Y-20634D01*
X35034Y-20725D01*
X35035Y-21253D01*
X35097Y-21316D01*
X35550Y-21316D01*
X35550Y-21416D01*
X35097Y-21416D01*
X35035Y-21478D01*
X35034Y-22006D01*
X35072Y-22097D01*
X35143Y-22168D01*
X35235Y-22206D01*
X35334Y-22206D01*
X35487Y-22206D01*
X35550Y-22144D01*
X35550Y-28174D01*
X35515Y-28174D01*
X35359Y-28239D01*
X35239Y-28358D01*
X35175Y-28515D01*
X35174Y-28684D01*
X35239Y-28840D01*
X35358Y-28960D01*
X35515Y-29024D01*
X35684Y-29025D01*
X35840Y-28960D01*
X35850Y-28950D01*
X36702Y-28950D01*
X36675Y-29015D01*
X36675Y-29029D01*
X34952Y-30752D01*
X34887Y-30849D01*
X34350Y-30849D01*
X34258Y-30887D01*
X34250Y-30896D01*
X34250Y-21499D01*
X34250Y-20800D01*
X34212Y-20708D01*
X34141Y-20638D01*
X34049Y-20600D01*
X33950Y-20599D01*
X33712Y-20600D01*
X33650Y-20662D01*
X33650Y-21100D01*
X34187Y-21100D01*
X34250Y-21037D01*
X34250Y-20800D01*
X34250Y-21499D01*
X34250Y-21262D01*
X34187Y-21200D01*
X33650Y-21200D01*
X33650Y-21637D01*
X33712Y-21700D01*
X33950Y-21700D01*
X34049Y-21699D01*
X34141Y-21661D01*
X34212Y-21591D01*
X34250Y-21499D01*
X34250Y-30896D01*
X34188Y-30958D01*
X34150Y-31050D01*
X34149Y-31149D01*
X34149Y-32749D01*
X34187Y-32841D01*
X34258Y-32911D01*
X34350Y-32949D01*
X34449Y-32950D01*
X36049Y-32950D01*
X36141Y-32912D01*
X36211Y-32841D01*
X36249Y-32749D01*
X36250Y-32650D01*
X36250Y-31050D01*
X36212Y-30958D01*
X36141Y-30888D01*
X36049Y-30850D01*
X35950Y-30849D01*
X35845Y-30849D01*
X37169Y-29525D01*
X37184Y-29525D01*
X37340Y-29460D01*
X37350Y-29450D01*
X37350Y-30949D01*
X36850Y-30949D01*
X36758Y-30987D01*
X36688Y-31058D01*
X36650Y-31150D01*
X36649Y-31249D01*
X36649Y-32849D01*
X36687Y-32941D01*
X36758Y-33011D01*
X36850Y-33049D01*
X36949Y-33050D01*
X38549Y-33050D01*
X38641Y-33012D01*
X38711Y-32941D01*
X38749Y-32849D01*
X38750Y-32750D01*
X38750Y-31150D01*
X38712Y-31058D01*
X38641Y-30988D01*
X38549Y-30950D01*
X38450Y-30949D01*
X38050Y-30949D01*
X38050Y-29351D01*
X38060Y-29341D01*
X38124Y-29184D01*
X38125Y-29015D01*
X38097Y-28950D01*
X39255Y-28950D01*
X40302Y-29997D01*
X40302Y-29997D01*
X40416Y-30073D01*
X40524Y-30095D01*
X40524Y-30249D01*
X40562Y-30341D01*
X40633Y-30411D01*
X40725Y-30449D01*
X40824Y-30450D01*
X41274Y-30450D01*
X41366Y-30412D01*
X41436Y-30341D01*
X41474Y-30249D01*
X41475Y-30150D01*
X41475Y-31079D01*
X40852Y-31702D01*
X40820Y-31749D01*
X40250Y-31749D01*
X40158Y-31787D01*
X40088Y-31858D01*
X40050Y-31950D01*
X40049Y-32049D01*
X40049Y-33649D01*
X40087Y-33741D01*
X40158Y-33811D01*
X40250Y-33849D01*
X40349Y-33850D01*
X41949Y-33850D01*
X42041Y-33812D01*
X42111Y-33741D01*
X42149Y-33649D01*
X42150Y-33550D01*
X42150Y-31950D01*
X42112Y-31858D01*
X42041Y-31788D01*
X41949Y-31750D01*
X41850Y-31749D01*
X41795Y-31749D01*
X41969Y-31575D01*
X41984Y-31575D01*
X42140Y-31510D01*
X42260Y-31391D01*
X42324Y-31234D01*
X42325Y-31065D01*
X42325Y-35950D01*
X33550Y-35950D01*
X33550Y-21637D01*
X33550Y-21200D01*
X33550Y-21100D01*
X33550Y-20662D01*
X33487Y-20600D01*
X33249Y-20599D01*
X33150Y-20600D01*
X33058Y-20638D01*
X32987Y-20708D01*
X32949Y-20800D01*
X32950Y-21037D01*
X33012Y-21100D01*
X33550Y-21100D01*
X33550Y-21200D01*
X33012Y-21200D01*
X32950Y-21262D01*
X32949Y-21499D01*
X32987Y-21591D01*
X33058Y-21661D01*
X33150Y-21699D01*
X33249Y-21700D01*
X33487Y-21700D01*
X33550Y-21637D01*
X33550Y-35950D01*
X32550Y-35950D01*
X32550Y-34292D01*
X32550Y-34291D01*
X32550Y-24850D01*
X32550Y-23349D01*
X32549Y-23250D01*
X32511Y-23158D01*
X32441Y-23087D01*
X32349Y-23049D01*
X31612Y-23050D01*
X31550Y-23112D01*
X31550Y-24050D01*
X32487Y-24050D01*
X32550Y-23987D01*
X32550Y-23349D01*
X32550Y-24850D01*
X32550Y-24212D01*
X32487Y-24150D01*
X31550Y-24150D01*
X31550Y-25087D01*
X31612Y-25150D01*
X32349Y-25150D01*
X32441Y-25112D01*
X32511Y-25041D01*
X32549Y-24949D01*
X32550Y-24850D01*
X32550Y-34291D01*
X32390Y-33906D01*
X32095Y-33610D01*
X31709Y-33450D01*
X31450Y-33449D01*
X31450Y-25087D01*
X31450Y-24150D01*
X31450Y-24050D01*
X31450Y-23112D01*
X31387Y-23050D01*
X30650Y-23049D01*
X30558Y-23087D01*
X30488Y-23158D01*
X30450Y-23250D01*
X30449Y-23349D01*
X30450Y-23987D01*
X30512Y-24050D01*
X31450Y-24050D01*
X31450Y-24150D01*
X30512Y-24150D01*
X30450Y-24212D01*
X30449Y-24850D01*
X30450Y-24949D01*
X30488Y-25041D01*
X30558Y-25112D01*
X30650Y-25150D01*
X31387Y-25150D01*
X31450Y-25087D01*
X31450Y-33449D01*
X31292Y-33449D01*
X30906Y-33609D01*
X30610Y-33904D01*
X30450Y-34290D01*
X30449Y-34707D01*
X30609Y-35094D01*
X30904Y-35389D01*
X31290Y-35549D01*
X31707Y-35550D01*
X32094Y-35390D01*
X32389Y-35095D01*
X32549Y-34709D01*
X32550Y-34292D01*
X32550Y-35950D01*
X30050Y-35950D01*
X30050Y-12050D01*
X72950Y-12050D01*
X72950Y-35950D01*
X72950Y-35950D01*
G37*
G54D28*
X72950Y-35950D02*
X72550Y-35950D01*
X72550Y-34292D01*
X72550Y-13292D01*
X72390Y-12906D01*
X72095Y-12610D01*
X71709Y-12450D01*
X71292Y-12449D01*
X70906Y-12609D01*
X70610Y-12904D01*
X70450Y-13290D01*
X70449Y-13707D01*
X70609Y-14094D01*
X70904Y-14389D01*
X71290Y-14549D01*
X71707Y-14550D01*
X72094Y-14390D01*
X72389Y-14095D01*
X72549Y-13709D01*
X72550Y-13292D01*
X72550Y-34292D01*
X72450Y-34049D01*
X72450Y-24850D01*
X72450Y-23250D01*
X72412Y-23158D01*
X72341Y-23088D01*
X72249Y-23050D01*
X72150Y-23049D01*
X70550Y-23049D01*
X70470Y-23083D01*
X70460Y-23059D01*
X70341Y-22939D01*
X70184Y-22875D01*
X70015Y-22874D01*
X69859Y-22939D01*
X69739Y-23058D01*
X69700Y-23155D01*
X69700Y-22601D01*
X69758Y-22660D01*
X69915Y-22724D01*
X70084Y-22725D01*
X70240Y-22660D01*
X70360Y-22541D01*
X70424Y-22384D01*
X70424Y-22378D01*
X70458Y-22411D01*
X70550Y-22449D01*
X70649Y-22450D01*
X72249Y-22450D01*
X72341Y-22412D01*
X72411Y-22341D01*
X72449Y-22249D01*
X72450Y-22150D01*
X72450Y-20550D01*
X72412Y-20458D01*
X72341Y-20388D01*
X72249Y-20350D01*
X72150Y-20349D01*
X70550Y-20349D01*
X70458Y-20387D01*
X70388Y-20458D01*
X70350Y-20550D01*
X70349Y-20649D01*
X70349Y-21455D01*
X69930Y-21874D01*
X69915Y-21874D01*
X69759Y-21939D01*
X69700Y-21998D01*
X69700Y-18400D01*
X69661Y-18208D01*
X69553Y-18046D01*
X69553Y-18046D01*
X69353Y-17846D01*
X69191Y-17738D01*
X69000Y-17699D01*
X68999Y-17700D01*
X68300Y-17700D01*
X68300Y-13600D01*
X68299Y-13599D01*
X68300Y-13599D01*
X68292Y-13561D01*
X68261Y-13408D01*
X68261Y-13408D01*
X68153Y-13246D01*
X68153Y-13246D01*
X67753Y-12846D01*
X67591Y-12738D01*
X67400Y-12699D01*
X67399Y-12700D01*
X54500Y-12700D01*
X54500Y-12699D01*
X54308Y-12738D01*
X54146Y-12846D01*
X54038Y-13008D01*
X53999Y-13200D01*
X54038Y-13391D01*
X54100Y-13484D01*
X54100Y-19300D01*
X53200Y-19300D01*
X53074Y-19324D01*
X52700Y-19324D01*
X52608Y-19362D01*
X52550Y-19421D01*
X52550Y-19178D01*
X52608Y-19236D01*
X52700Y-19274D01*
X52799Y-19275D01*
X53699Y-19275D01*
X53791Y-19237D01*
X53861Y-19166D01*
X53899Y-19074D01*
X53900Y-18975D01*
X53900Y-18525D01*
X53862Y-18433D01*
X53791Y-18363D01*
X53699Y-18325D01*
X53600Y-18324D01*
X52700Y-18324D01*
X52608Y-18362D01*
X52550Y-18421D01*
X52550Y-18244D01*
X52583Y-18211D01*
X52608Y-18236D01*
X52700Y-18274D01*
X52799Y-18275D01*
X53699Y-18275D01*
X53791Y-18237D01*
X53861Y-18166D01*
X53899Y-18074D01*
X53900Y-17975D01*
X53900Y-17525D01*
X53862Y-17433D01*
X53791Y-17363D01*
X53699Y-17325D01*
X53600Y-17324D01*
X52700Y-17324D01*
X52608Y-17362D01*
X52538Y-17433D01*
X52531Y-17450D01*
X52500Y-17450D01*
X52499Y-17450D01*
X52366Y-17476D01*
X52252Y-17552D01*
X52252Y-17552D01*
X51952Y-17852D01*
X51876Y-17966D01*
X51850Y-18100D01*
X51850Y-20600D01*
X51876Y-20733D01*
X51952Y-20847D01*
X53150Y-22044D01*
X53150Y-24700D01*
X53174Y-24825D01*
X53174Y-24825D01*
X53174Y-24884D01*
X53239Y-25040D01*
X53358Y-25160D01*
X53515Y-25224D01*
X53684Y-25225D01*
X53840Y-25160D01*
X53960Y-25041D01*
X54024Y-24884D01*
X54025Y-24715D01*
X53960Y-24559D01*
X53850Y-24448D01*
X53850Y-21900D01*
X53823Y-21766D01*
X53823Y-21766D01*
X53747Y-21652D01*
X52550Y-20455D01*
X52550Y-20178D01*
X52608Y-20236D01*
X52700Y-20274D01*
X52799Y-20275D01*
X53074Y-20275D01*
X53200Y-20300D01*
X54399Y-20300D01*
X54400Y-20300D01*
X54400Y-20300D01*
X54591Y-20261D01*
X54753Y-20153D01*
X54953Y-19953D01*
X54953Y-19953D01*
X54953Y-19953D01*
X55061Y-19791D01*
X55100Y-19600D01*
X55100Y-13700D01*
X67192Y-13700D01*
X67300Y-13807D01*
X67300Y-17725D01*
X67208Y-17762D01*
X67138Y-17833D01*
X67100Y-17925D01*
X67099Y-18024D01*
X67099Y-18474D01*
X67137Y-18566D01*
X67208Y-18636D01*
X67300Y-18674D01*
X67399Y-18675D01*
X67674Y-18675D01*
X67800Y-18700D01*
X68700Y-18700D01*
X68700Y-23499D01*
X68699Y-23500D01*
X68738Y-23691D01*
X68842Y-23847D01*
X68150Y-23155D01*
X68150Y-20675D01*
X68299Y-20675D01*
X68391Y-20637D01*
X68461Y-20566D01*
X68499Y-20474D01*
X68500Y-20375D01*
X68500Y-19925D01*
X68500Y-19375D01*
X68500Y-18925D01*
X68462Y-18833D01*
X68391Y-18763D01*
X68299Y-18725D01*
X68200Y-18724D01*
X67300Y-18724D01*
X67208Y-18762D01*
X67138Y-18833D01*
X67100Y-18925D01*
X67099Y-19024D01*
X67099Y-19474D01*
X67137Y-19566D01*
X67208Y-19636D01*
X67300Y-19674D01*
X67399Y-19675D01*
X68299Y-19675D01*
X68391Y-19637D01*
X68461Y-19566D01*
X68499Y-19474D01*
X68500Y-19375D01*
X68500Y-19925D01*
X68462Y-19833D01*
X68391Y-19763D01*
X68299Y-19725D01*
X68200Y-19724D01*
X67300Y-19724D01*
X67208Y-19762D01*
X67138Y-19833D01*
X67100Y-19925D01*
X67099Y-20024D01*
X67099Y-20474D01*
X67137Y-20566D01*
X67208Y-20636D01*
X67300Y-20674D01*
X67399Y-20675D01*
X67450Y-20675D01*
X67450Y-23300D01*
X67476Y-23433D01*
X67552Y-23547D01*
X68674Y-24669D01*
X68674Y-24684D01*
X68739Y-24840D01*
X68858Y-24960D01*
X69015Y-25024D01*
X69184Y-25025D01*
X69300Y-24977D01*
X69300Y-28966D01*
X68250Y-28966D01*
X68250Y-28050D01*
X68250Y-26450D01*
X68212Y-26358D01*
X68141Y-26288D01*
X68049Y-26250D01*
X67950Y-26249D01*
X67425Y-26249D01*
X67425Y-21715D01*
X67360Y-21559D01*
X67241Y-21439D01*
X67084Y-21375D01*
X67070Y-21375D01*
X67047Y-21352D01*
X66933Y-21276D01*
X66800Y-21250D01*
X65177Y-21250D01*
X65177Y-17024D01*
X65139Y-16932D01*
X65069Y-16862D01*
X64977Y-16824D01*
X64877Y-16823D01*
X64300Y-16823D01*
X64300Y-16353D01*
X64311Y-16341D01*
X64349Y-16249D01*
X64350Y-16150D01*
X64350Y-14550D01*
X64312Y-14458D01*
X64241Y-14388D01*
X64149Y-14350D01*
X64050Y-14349D01*
X62450Y-14349D01*
X62358Y-14387D01*
X62288Y-14458D01*
X62250Y-14550D01*
X62249Y-14649D01*
X62249Y-14900D01*
X61699Y-14900D01*
X61700Y-14850D01*
X61700Y-14050D01*
X61662Y-13958D01*
X61591Y-13888D01*
X61499Y-13850D01*
X61400Y-13849D01*
X60800Y-13849D01*
X60708Y-13887D01*
X60638Y-13958D01*
X60600Y-14050D01*
X60599Y-14149D01*
X60599Y-14949D01*
X60637Y-15041D01*
X60650Y-15053D01*
X60650Y-15400D01*
X60650Y-15446D01*
X60638Y-15458D01*
X60600Y-15550D01*
X60599Y-15649D01*
X60599Y-16449D01*
X60637Y-16541D01*
X60708Y-16611D01*
X60800Y-16649D01*
X60899Y-16650D01*
X61499Y-16650D01*
X61591Y-16612D01*
X61661Y-16541D01*
X61699Y-16449D01*
X61700Y-16350D01*
X61700Y-15900D01*
X62249Y-15900D01*
X62249Y-16249D01*
X62287Y-16341D01*
X62358Y-16411D01*
X62450Y-16449D01*
X62549Y-16450D01*
X62800Y-16450D01*
X62800Y-16823D01*
X62122Y-16823D01*
X62031Y-16861D01*
X61960Y-16932D01*
X61922Y-17024D01*
X61922Y-17123D01*
X61922Y-21375D01*
X61960Y-21467D01*
X62000Y-21507D01*
X62000Y-22700D01*
X62024Y-22825D01*
X62024Y-23199D01*
X62062Y-23291D01*
X62133Y-23361D01*
X62225Y-23399D01*
X62324Y-23400D01*
X62774Y-23400D01*
X62866Y-23362D01*
X62936Y-23291D01*
X62974Y-23199D01*
X62975Y-23100D01*
X62975Y-22825D01*
X63000Y-22700D01*
X63000Y-21576D01*
X64481Y-21576D01*
X64752Y-21847D01*
X64866Y-21923D01*
X65000Y-21950D01*
X66602Y-21950D01*
X66639Y-22040D01*
X66758Y-22160D01*
X66915Y-22224D01*
X67084Y-22225D01*
X67240Y-22160D01*
X67360Y-22041D01*
X67424Y-21884D01*
X67425Y-21715D01*
X67425Y-26249D01*
X66625Y-26249D01*
X66625Y-23015D01*
X66560Y-22859D01*
X66441Y-22739D01*
X66284Y-22675D01*
X66115Y-22674D01*
X65959Y-22739D01*
X65848Y-22850D01*
X65144Y-22850D01*
X64975Y-22680D01*
X64975Y-22200D01*
X64937Y-22108D01*
X64866Y-22038D01*
X64774Y-22000D01*
X64675Y-21999D01*
X64225Y-21999D01*
X64133Y-22037D01*
X64063Y-22108D01*
X64025Y-22200D01*
X64024Y-22299D01*
X64024Y-23199D01*
X64062Y-23291D01*
X64133Y-23361D01*
X64225Y-23399D01*
X64324Y-23400D01*
X64705Y-23400D01*
X64752Y-23447D01*
X64866Y-23523D01*
X64866Y-23523D01*
X65000Y-23550D01*
X66100Y-23550D01*
X66225Y-23525D01*
X66225Y-23525D01*
X66284Y-23525D01*
X66440Y-23460D01*
X66560Y-23341D01*
X66624Y-23184D01*
X66625Y-23015D01*
X66625Y-26249D01*
X66350Y-26249D01*
X66258Y-26287D01*
X66188Y-26358D01*
X66150Y-26450D01*
X66149Y-26549D01*
X66149Y-26800D01*
X65876Y-26800D01*
X65876Y-25522D01*
X65838Y-25431D01*
X65767Y-25360D01*
X65675Y-25322D01*
X65576Y-25322D01*
X63975Y-25322D01*
X63975Y-23100D01*
X63975Y-22200D01*
X63937Y-22108D01*
X63866Y-22038D01*
X63774Y-22000D01*
X63675Y-21999D01*
X63225Y-21999D01*
X63133Y-22037D01*
X63063Y-22108D01*
X63025Y-22200D01*
X63024Y-22299D01*
X63024Y-23199D01*
X63062Y-23291D01*
X63133Y-23361D01*
X63225Y-23399D01*
X63324Y-23400D01*
X63774Y-23400D01*
X63866Y-23362D01*
X63936Y-23291D01*
X63974Y-23199D01*
X63975Y-23100D01*
X63975Y-25322D01*
X61324Y-25322D01*
X61232Y-25360D01*
X61162Y-25430D01*
X61124Y-25522D01*
X61123Y-25622D01*
X61123Y-26200D01*
X60400Y-26200D01*
X60400Y-16350D01*
X60400Y-15550D01*
X60362Y-15458D01*
X60350Y-15446D01*
X60350Y-15300D01*
X60350Y-15053D01*
X60361Y-15041D01*
X60399Y-14949D01*
X60400Y-14850D01*
X60400Y-14050D01*
X60362Y-13958D01*
X60291Y-13888D01*
X60199Y-13850D01*
X60100Y-13849D01*
X59500Y-13849D01*
X59408Y-13887D01*
X59338Y-13958D01*
X59300Y-14050D01*
X59299Y-14149D01*
X59299Y-14800D01*
X58550Y-14800D01*
X58550Y-14450D01*
X58512Y-14358D01*
X58441Y-14288D01*
X58349Y-14250D01*
X58250Y-14249D01*
X56650Y-14249D01*
X56558Y-14287D01*
X56488Y-14358D01*
X56450Y-14450D01*
X56449Y-14549D01*
X56449Y-16149D01*
X56487Y-16241D01*
X56558Y-16311D01*
X56650Y-16349D01*
X56700Y-16349D01*
X56700Y-16423D01*
X56022Y-16423D01*
X55931Y-16461D01*
X55860Y-16532D01*
X55822Y-16624D01*
X55822Y-16723D01*
X55822Y-20975D01*
X55860Y-21067D01*
X55930Y-21137D01*
X56022Y-21175D01*
X56122Y-21176D01*
X56422Y-21176D01*
X56339Y-21258D01*
X56275Y-21415D01*
X56274Y-21584D01*
X56339Y-21740D01*
X56458Y-21860D01*
X56500Y-21877D01*
X56500Y-22700D01*
X56524Y-22825D01*
X56524Y-23199D01*
X56562Y-23291D01*
X56633Y-23361D01*
X56725Y-23399D01*
X56824Y-23400D01*
X57274Y-23400D01*
X57366Y-23362D01*
X57436Y-23291D01*
X57474Y-23199D01*
X57475Y-23100D01*
X57475Y-22825D01*
X57500Y-22700D01*
X57500Y-22007D01*
X57803Y-21703D01*
X57911Y-21541D01*
X57950Y-21350D01*
X57950Y-21176D01*
X58877Y-21176D01*
X58968Y-21138D01*
X59039Y-21067D01*
X59077Y-20975D01*
X59077Y-20876D01*
X59077Y-16624D01*
X59039Y-16532D01*
X58969Y-16462D01*
X58877Y-16424D01*
X58777Y-16423D01*
X58200Y-16423D01*
X58200Y-16350D01*
X58349Y-16350D01*
X58441Y-16312D01*
X58511Y-16241D01*
X58549Y-16149D01*
X58550Y-16050D01*
X58550Y-15800D01*
X59299Y-15800D01*
X59299Y-16449D01*
X59337Y-16541D01*
X59408Y-16611D01*
X59500Y-16649D01*
X59599Y-16650D01*
X60199Y-16650D01*
X60291Y-16612D01*
X60361Y-16541D01*
X60399Y-16449D01*
X60400Y-16350D01*
X60400Y-26200D01*
X60376Y-26200D01*
X60376Y-25522D01*
X60338Y-25431D01*
X60267Y-25360D01*
X60175Y-25322D01*
X60076Y-25322D01*
X59475Y-25322D01*
X59475Y-23100D01*
X59475Y-22200D01*
X59437Y-22108D01*
X59366Y-22038D01*
X59274Y-22000D01*
X59175Y-21999D01*
X58725Y-21999D01*
X58633Y-22037D01*
X58563Y-22108D01*
X58525Y-22200D01*
X58524Y-22299D01*
X58524Y-23199D01*
X58562Y-23291D01*
X58633Y-23361D01*
X58650Y-23368D01*
X58650Y-23455D01*
X58475Y-23629D01*
X58475Y-23100D01*
X58475Y-22200D01*
X58437Y-22108D01*
X58366Y-22038D01*
X58274Y-22000D01*
X58175Y-21999D01*
X57725Y-21999D01*
X57633Y-22037D01*
X57563Y-22108D01*
X57525Y-22200D01*
X57524Y-22299D01*
X57524Y-23199D01*
X57562Y-23291D01*
X57633Y-23361D01*
X57725Y-23399D01*
X57824Y-23400D01*
X58274Y-23400D01*
X58366Y-23362D01*
X58436Y-23291D01*
X58474Y-23199D01*
X58475Y-23100D01*
X58475Y-23629D01*
X58355Y-23750D01*
X56744Y-23750D01*
X56050Y-23055D01*
X56050Y-22300D01*
X56023Y-22166D01*
X56023Y-22166D01*
X55947Y-22052D01*
X55625Y-21730D01*
X55625Y-21715D01*
X55560Y-21559D01*
X55441Y-21439D01*
X55284Y-21375D01*
X55115Y-21374D01*
X54959Y-21439D01*
X54839Y-21558D01*
X54775Y-21715D01*
X54774Y-21884D01*
X54839Y-22040D01*
X54958Y-22160D01*
X55115Y-22224D01*
X55129Y-22224D01*
X55350Y-22444D01*
X55350Y-23200D01*
X55376Y-23333D01*
X55452Y-23447D01*
X56352Y-24347D01*
X56466Y-24423D01*
X56466Y-24423D01*
X56600Y-24450D01*
X58500Y-24450D01*
X58633Y-24423D01*
X58633Y-24423D01*
X58747Y-24347D01*
X59247Y-23847D01*
X59323Y-23733D01*
X59323Y-23733D01*
X59350Y-23600D01*
X59350Y-23368D01*
X59366Y-23362D01*
X59436Y-23291D01*
X59474Y-23199D01*
X59475Y-23100D01*
X59475Y-25322D01*
X55824Y-25322D01*
X55732Y-25360D01*
X55662Y-25430D01*
X55624Y-25522D01*
X55623Y-25622D01*
X55623Y-26984D01*
X54809Y-26984D01*
X54756Y-26931D01*
X54664Y-26893D01*
X54565Y-26893D01*
X53935Y-26893D01*
X53843Y-26931D01*
X53773Y-27001D01*
X53735Y-27093D01*
X53734Y-27193D01*
X53734Y-27234D01*
X53450Y-27234D01*
X53450Y-26851D01*
X53460Y-26841D01*
X53524Y-26684D01*
X53525Y-26515D01*
X53460Y-26359D01*
X53341Y-26239D01*
X53184Y-26175D01*
X53015Y-26174D01*
X52859Y-26239D01*
X52739Y-26358D01*
X52675Y-26515D01*
X52674Y-26684D01*
X52739Y-26840D01*
X52750Y-26850D01*
X52750Y-27234D01*
X52365Y-27234D01*
X52365Y-27093D01*
X52350Y-27057D01*
X52350Y-26953D01*
X52361Y-26941D01*
X52399Y-26849D01*
X52400Y-26750D01*
X52400Y-25950D01*
X52362Y-25858D01*
X52350Y-25846D01*
X52350Y-25653D01*
X52361Y-25641D01*
X52399Y-25549D01*
X52400Y-25450D01*
X52400Y-24650D01*
X52362Y-24558D01*
X52350Y-24546D01*
X52350Y-23850D01*
X52311Y-23658D01*
X52203Y-23496D01*
X52203Y-23496D01*
X52053Y-23346D01*
X51891Y-23238D01*
X51700Y-23199D01*
X51699Y-23200D01*
X51479Y-23200D01*
X51462Y-23158D01*
X51391Y-23088D01*
X51300Y-23050D01*
X51300Y-23001D01*
X51360Y-22941D01*
X51424Y-22784D01*
X51425Y-22615D01*
X51360Y-22459D01*
X51241Y-22339D01*
X51084Y-22275D01*
X50915Y-22274D01*
X50759Y-22339D01*
X50639Y-22458D01*
X50575Y-22615D01*
X50574Y-22784D01*
X50600Y-22844D01*
X50600Y-23050D01*
X50508Y-23087D01*
X50438Y-23158D01*
X50400Y-23250D01*
X50399Y-23349D01*
X50399Y-24149D01*
X50437Y-24241D01*
X50508Y-24311D01*
X50600Y-24349D01*
X50699Y-24350D01*
X51299Y-24350D01*
X51350Y-24329D01*
X51350Y-24546D01*
X51338Y-24558D01*
X51300Y-24650D01*
X51299Y-24749D01*
X51299Y-25549D01*
X51337Y-25641D01*
X51350Y-25653D01*
X51350Y-25846D01*
X51338Y-25858D01*
X51300Y-25950D01*
X51299Y-26049D01*
X51299Y-26849D01*
X51336Y-26938D01*
X51273Y-27001D01*
X51235Y-27093D01*
X51234Y-27193D01*
X51234Y-28374D01*
X51272Y-28465D01*
X51343Y-28536D01*
X51435Y-28574D01*
X51534Y-28574D01*
X52164Y-28574D01*
X52256Y-28536D01*
X52326Y-28466D01*
X52364Y-28374D01*
X52365Y-28274D01*
X52365Y-28234D01*
X53100Y-28234D01*
X53300Y-28234D01*
X53734Y-28234D01*
X53734Y-28374D01*
X53772Y-28465D01*
X53843Y-28536D01*
X53935Y-28574D01*
X54034Y-28574D01*
X54664Y-28574D01*
X54756Y-28536D01*
X54809Y-28484D01*
X55676Y-28484D01*
X55732Y-28539D01*
X55824Y-28577D01*
X55923Y-28577D01*
X60175Y-28577D01*
X60267Y-28539D01*
X60337Y-28469D01*
X60375Y-28377D01*
X60376Y-28277D01*
X60376Y-27700D01*
X61123Y-27700D01*
X61123Y-28377D01*
X61161Y-28468D01*
X61232Y-28539D01*
X61324Y-28577D01*
X61423Y-28577D01*
X65675Y-28577D01*
X65767Y-28539D01*
X65837Y-28469D01*
X65875Y-28377D01*
X65876Y-28277D01*
X65876Y-27800D01*
X66149Y-27800D01*
X66149Y-28149D01*
X66187Y-28241D01*
X66258Y-28311D01*
X66350Y-28349D01*
X66449Y-28350D01*
X68049Y-28350D01*
X68141Y-28312D01*
X68211Y-28241D01*
X68249Y-28149D01*
X68250Y-28050D01*
X68250Y-28966D01*
X54865Y-28966D01*
X54865Y-28825D01*
X54827Y-28734D01*
X54756Y-28663D01*
X54664Y-28625D01*
X54565Y-28625D01*
X53935Y-28625D01*
X53843Y-28663D01*
X53773Y-28733D01*
X53735Y-28825D01*
X53734Y-28925D01*
X53734Y-28966D01*
X52365Y-28966D01*
X52365Y-28825D01*
X52327Y-28734D01*
X52256Y-28663D01*
X52164Y-28625D01*
X52065Y-28625D01*
X51435Y-28625D01*
X51343Y-28663D01*
X51273Y-28733D01*
X51235Y-28825D01*
X51234Y-28925D01*
X51234Y-28966D01*
X51050Y-28966D01*
X51050Y-27900D01*
X51050Y-27400D01*
X51050Y-27100D01*
X51050Y-26953D01*
X51061Y-26941D01*
X51099Y-26849D01*
X51100Y-26750D01*
X51100Y-25950D01*
X51062Y-25858D01*
X51050Y-25846D01*
X51050Y-25653D01*
X51061Y-25641D01*
X51099Y-25549D01*
X51100Y-25450D01*
X51100Y-24650D01*
X51062Y-24558D01*
X50991Y-24488D01*
X50899Y-24450D01*
X50800Y-24449D01*
X50200Y-24449D01*
X50108Y-24487D01*
X50038Y-24558D01*
X50000Y-24650D01*
X50000Y-24700D01*
X50000Y-24349D01*
X50091Y-24312D01*
X50161Y-24241D01*
X50199Y-24149D01*
X50200Y-24050D01*
X50200Y-23250D01*
X50162Y-23158D01*
X50091Y-23088D01*
X49999Y-23050D01*
X49900Y-23049D01*
X49707Y-23049D01*
X49255Y-22598D01*
X49255Y-21812D01*
X49217Y-21720D01*
X49147Y-21650D01*
X49055Y-21612D01*
X48956Y-21612D01*
X47484Y-21612D01*
X47484Y-17088D01*
X47484Y-15119D01*
X47446Y-15027D01*
X47376Y-14957D01*
X47284Y-14919D01*
X47184Y-14919D01*
X45216Y-14919D01*
X45124Y-14957D01*
X45053Y-15027D01*
X45015Y-15119D01*
X45015Y-15218D01*
X45015Y-17187D01*
X45053Y-17279D01*
X45123Y-17349D01*
X45215Y-17387D01*
X45315Y-17387D01*
X47283Y-17387D01*
X47375Y-17349D01*
X47446Y-17279D01*
X47484Y-17187D01*
X47484Y-17088D01*
X47484Y-21612D01*
X46987Y-21612D01*
X46895Y-21650D01*
X46825Y-21720D01*
X46787Y-21812D01*
X46787Y-21911D01*
X46787Y-23880D01*
X46825Y-23972D01*
X46895Y-24042D01*
X46987Y-24080D01*
X47086Y-24080D01*
X49055Y-24080D01*
X49099Y-24062D01*
X49099Y-24149D01*
X49137Y-24241D01*
X49208Y-24311D01*
X49300Y-24349D01*
X49300Y-24449D01*
X49000Y-24449D01*
X48908Y-24487D01*
X48838Y-24558D01*
X48800Y-24650D01*
X48799Y-24749D01*
X48799Y-25549D01*
X48837Y-25641D01*
X48908Y-25711D01*
X49000Y-25749D01*
X49000Y-26022D01*
X48959Y-26039D01*
X48839Y-26158D01*
X48775Y-26315D01*
X48774Y-26484D01*
X48822Y-26600D01*
X47700Y-26600D01*
X47607Y-26600D01*
X47473Y-26465D01*
X47615Y-26524D01*
X47784Y-26525D01*
X47940Y-26460D01*
X48060Y-26341D01*
X48124Y-26184D01*
X48124Y-26170D01*
X48297Y-25997D01*
X48297Y-25997D01*
X48297Y-25997D01*
X48373Y-25883D01*
X48399Y-25750D01*
X48400Y-25750D01*
X48400Y-25749D01*
X48491Y-25712D01*
X48561Y-25641D01*
X48599Y-25549D01*
X48600Y-25450D01*
X48600Y-24650D01*
X48562Y-24558D01*
X48491Y-24488D01*
X48399Y-24450D01*
X48300Y-24449D01*
X47700Y-24449D01*
X47608Y-24487D01*
X47538Y-24558D01*
X47500Y-24650D01*
X47500Y-24650D01*
X47462Y-24558D01*
X47391Y-24488D01*
X47299Y-24450D01*
X47200Y-24449D01*
X46600Y-24449D01*
X46508Y-24487D01*
X46438Y-24558D01*
X46400Y-24650D01*
X46399Y-24749D01*
X46399Y-25549D01*
X46437Y-25641D01*
X46508Y-25711D01*
X46600Y-25749D01*
X46699Y-25750D01*
X47299Y-25750D01*
X47391Y-25712D01*
X47461Y-25641D01*
X47499Y-25549D01*
X47499Y-25549D01*
X47499Y-25549D01*
X47537Y-25641D01*
X47584Y-25687D01*
X47459Y-25739D01*
X47339Y-25858D01*
X47275Y-26015D01*
X47274Y-26181D01*
X47199Y-26150D01*
X47100Y-26149D01*
X46500Y-26149D01*
X46408Y-26187D01*
X46338Y-26258D01*
X46300Y-26350D01*
X46299Y-26449D01*
X46299Y-27249D01*
X46337Y-27341D01*
X46408Y-27411D01*
X46468Y-27436D01*
X46200Y-27704D01*
X46200Y-25450D01*
X46200Y-24650D01*
X46162Y-24558D01*
X46091Y-24488D01*
X46000Y-24450D01*
X46000Y-24018D01*
X45973Y-23884D01*
X45897Y-23770D01*
X45712Y-23585D01*
X45712Y-22925D01*
X45728Y-22846D01*
X45712Y-22767D01*
X45712Y-21812D01*
X45674Y-21720D01*
X45604Y-21650D01*
X45512Y-21612D01*
X45413Y-21612D01*
X44557Y-21612D01*
X44478Y-21596D01*
X41626Y-21596D01*
X41626Y-20327D01*
X41626Y-17572D01*
X41588Y-17481D01*
X41517Y-17410D01*
X41425Y-17372D01*
X41326Y-17372D01*
X41200Y-17372D01*
X41200Y-14700D01*
X41161Y-14508D01*
X41053Y-14346D01*
X40891Y-14238D01*
X40700Y-14200D01*
X40508Y-14238D01*
X40346Y-14346D01*
X39592Y-15100D01*
X37550Y-15100D01*
X37550Y-13292D01*
X37390Y-12906D01*
X37095Y-12610D01*
X36709Y-12450D01*
X36292Y-12449D01*
X35906Y-12609D01*
X35610Y-12904D01*
X35450Y-13290D01*
X35449Y-13707D01*
X35609Y-14094D01*
X35904Y-14389D01*
X36290Y-14549D01*
X36707Y-14550D01*
X37094Y-14390D01*
X37389Y-14095D01*
X37549Y-13709D01*
X37550Y-13292D01*
X37550Y-15100D01*
X32550Y-15100D01*
X32550Y-14750D01*
X32512Y-14658D01*
X32441Y-14588D01*
X32349Y-14550D01*
X32250Y-14549D01*
X30650Y-14549D01*
X30558Y-14587D01*
X30488Y-14658D01*
X30450Y-14750D01*
X30449Y-14849D01*
X30449Y-16449D01*
X30487Y-16541D01*
X30558Y-16611D01*
X30650Y-16649D01*
X30749Y-16650D01*
X32349Y-16650D01*
X32415Y-16622D01*
X33446Y-17653D01*
X33608Y-17761D01*
X33800Y-17800D01*
X33991Y-17761D01*
X34153Y-17653D01*
X34261Y-17491D01*
X34300Y-17300D01*
X34261Y-17108D01*
X34153Y-16946D01*
X33307Y-16100D01*
X39799Y-16100D01*
X39800Y-16100D01*
X39800Y-16100D01*
X39991Y-16061D01*
X40153Y-15953D01*
X41053Y-15053D01*
X41161Y-14891D01*
X41200Y-14700D01*
X41200Y-17372D01*
X37074Y-17372D01*
X36982Y-17410D01*
X36912Y-17480D01*
X36874Y-17572D01*
X36873Y-17672D01*
X36873Y-19134D01*
X36165Y-19134D01*
X36165Y-18993D01*
X36127Y-18902D01*
X36056Y-18831D01*
X35964Y-18793D01*
X35865Y-18793D01*
X35235Y-18793D01*
X35143Y-18831D01*
X35073Y-18901D01*
X35035Y-18993D01*
X35034Y-19093D01*
X35034Y-19350D01*
X34153Y-19350D01*
X34141Y-19338D01*
X34049Y-19300D01*
X33950Y-19299D01*
X33150Y-19299D01*
X33058Y-19337D01*
X33046Y-19350D01*
X32550Y-19350D01*
X32550Y-18450D01*
X32512Y-18358D01*
X32441Y-18288D01*
X32349Y-18250D01*
X32250Y-18249D01*
X30650Y-18249D01*
X30558Y-18287D01*
X30488Y-18358D01*
X30450Y-18450D01*
X30449Y-18549D01*
X30449Y-20149D01*
X30487Y-20241D01*
X30558Y-20311D01*
X30650Y-20349D01*
X30749Y-20350D01*
X32349Y-20350D01*
X32349Y-20350D01*
X33046Y-20350D01*
X33058Y-20361D01*
X33150Y-20399D01*
X33249Y-20400D01*
X34049Y-20400D01*
X34141Y-20362D01*
X34153Y-20350D01*
X35066Y-20350D01*
X35072Y-20365D01*
X35143Y-20436D01*
X35235Y-20474D01*
X35334Y-20474D01*
X35964Y-20474D01*
X36056Y-20436D01*
X36126Y-20366D01*
X36164Y-20274D01*
X36165Y-20174D01*
X36165Y-20134D01*
X36873Y-20134D01*
X36873Y-20427D01*
X36911Y-20518D01*
X36982Y-20589D01*
X37074Y-20627D01*
X37173Y-20627D01*
X41425Y-20627D01*
X41517Y-20589D01*
X41587Y-20519D01*
X41625Y-20427D01*
X41626Y-20327D01*
X41626Y-21596D01*
X41453Y-21596D01*
X40975Y-21691D01*
X40569Y-21962D01*
X40116Y-22416D01*
X40026Y-22549D01*
X39975Y-22549D01*
X39883Y-22587D01*
X39813Y-22658D01*
X39775Y-22750D01*
X39774Y-22849D01*
X39774Y-23124D01*
X39750Y-23250D01*
X39754Y-23274D01*
X39750Y-23300D01*
X39774Y-23425D01*
X39774Y-23749D01*
X39812Y-23841D01*
X39843Y-23872D01*
X39824Y-23872D01*
X39732Y-23910D01*
X39725Y-23917D01*
X39725Y-23650D01*
X39725Y-22750D01*
X39687Y-22658D01*
X39616Y-22588D01*
X39524Y-22550D01*
X39425Y-22549D01*
X38975Y-22549D01*
X38883Y-22587D01*
X38813Y-22658D01*
X38775Y-22750D01*
X38774Y-22849D01*
X38774Y-23749D01*
X38812Y-23841D01*
X38883Y-23911D01*
X38975Y-23949D01*
X39074Y-23950D01*
X39524Y-23950D01*
X39616Y-23912D01*
X39686Y-23841D01*
X39724Y-23749D01*
X39725Y-23650D01*
X39725Y-23917D01*
X39662Y-23980D01*
X39624Y-24072D01*
X39623Y-24172D01*
X39623Y-26927D01*
X39661Y-27018D01*
X39732Y-27089D01*
X39824Y-27127D01*
X39923Y-27127D01*
X44175Y-27127D01*
X44267Y-27089D01*
X44337Y-27019D01*
X44375Y-26927D01*
X44376Y-26827D01*
X44376Y-24096D01*
X44478Y-24096D01*
X44557Y-24080D01*
X45217Y-24080D01*
X45300Y-24163D01*
X45300Y-24450D01*
X45208Y-24487D01*
X45138Y-24558D01*
X45100Y-24650D01*
X45099Y-24749D01*
X45099Y-25549D01*
X45137Y-25641D01*
X45208Y-25711D01*
X45300Y-25749D01*
X45399Y-25750D01*
X45999Y-25750D01*
X46091Y-25712D01*
X46161Y-25641D01*
X46199Y-25549D01*
X46200Y-25450D01*
X46200Y-27704D01*
X46100Y-27804D01*
X46100Y-27150D01*
X46100Y-26449D01*
X46099Y-26350D01*
X46061Y-26258D01*
X45991Y-26187D01*
X45899Y-26149D01*
X45662Y-26150D01*
X45600Y-26212D01*
X45600Y-26750D01*
X46037Y-26750D01*
X46100Y-26687D01*
X46100Y-26449D01*
X46100Y-27150D01*
X46100Y-26912D01*
X46037Y-26850D01*
X45600Y-26850D01*
X45600Y-27387D01*
X45662Y-27450D01*
X45899Y-27450D01*
X45991Y-27412D01*
X46061Y-27341D01*
X46099Y-27249D01*
X46100Y-27150D01*
X46100Y-27804D01*
X45500Y-28405D01*
X45500Y-27387D01*
X45500Y-26850D01*
X45500Y-26750D01*
X45500Y-26212D01*
X45437Y-26150D01*
X45200Y-26149D01*
X45108Y-26187D01*
X45038Y-26258D01*
X45000Y-26350D01*
X44999Y-26449D01*
X45000Y-26687D01*
X45062Y-26750D01*
X45500Y-26750D01*
X45500Y-26850D01*
X45062Y-26850D01*
X45000Y-26912D01*
X44999Y-27150D01*
X45000Y-27249D01*
X45038Y-27341D01*
X45108Y-27412D01*
X45200Y-27450D01*
X45437Y-27450D01*
X45500Y-27387D01*
X45500Y-28405D01*
X44652Y-29252D01*
X44576Y-29366D01*
X44550Y-29500D01*
X44550Y-29572D01*
X44434Y-29688D01*
X44350Y-29890D01*
X44349Y-30108D01*
X44433Y-30311D01*
X44550Y-30427D01*
X44550Y-31749D01*
X43475Y-31749D01*
X43475Y-30150D01*
X43475Y-29349D01*
X43474Y-29250D01*
X43436Y-29158D01*
X43366Y-29087D01*
X43274Y-29049D01*
X43112Y-29050D01*
X43050Y-29112D01*
X43050Y-29700D01*
X43412Y-29700D01*
X43475Y-29637D01*
X43475Y-29349D01*
X43475Y-30150D01*
X43475Y-29862D01*
X43412Y-29800D01*
X43050Y-29800D01*
X43050Y-30387D01*
X43112Y-30450D01*
X43274Y-30450D01*
X43366Y-30412D01*
X43436Y-30341D01*
X43474Y-30249D01*
X43475Y-30150D01*
X43475Y-31749D01*
X43450Y-31749D01*
X43358Y-31787D01*
X43288Y-31858D01*
X43250Y-31950D01*
X43249Y-32049D01*
X43249Y-33649D01*
X43287Y-33741D01*
X43358Y-33811D01*
X43450Y-33849D01*
X43549Y-33850D01*
X45149Y-33850D01*
X45241Y-33812D01*
X45311Y-33741D01*
X45349Y-33649D01*
X45350Y-33550D01*
X45350Y-31950D01*
X45312Y-31858D01*
X45250Y-31796D01*
X45250Y-30427D01*
X45365Y-30311D01*
X45399Y-30230D01*
X45433Y-30311D01*
X45588Y-30465D01*
X45790Y-30549D01*
X46008Y-30550D01*
X46211Y-30466D01*
X46349Y-30327D01*
X46349Y-30349D01*
X46387Y-30441D01*
X46458Y-30511D01*
X46550Y-30549D01*
X46550Y-31749D01*
X45750Y-31749D01*
X45658Y-31787D01*
X45588Y-31858D01*
X45550Y-31950D01*
X45549Y-32049D01*
X45549Y-33649D01*
X45587Y-33741D01*
X45658Y-33811D01*
X45750Y-33849D01*
X45849Y-33850D01*
X47449Y-33850D01*
X47541Y-33812D01*
X47611Y-33741D01*
X47649Y-33649D01*
X47650Y-33550D01*
X47650Y-31950D01*
X47612Y-31858D01*
X47541Y-31788D01*
X47449Y-31750D01*
X47350Y-31749D01*
X47250Y-31749D01*
X47250Y-30549D01*
X47341Y-30512D01*
X47411Y-30441D01*
X47449Y-30349D01*
X47450Y-30250D01*
X47450Y-29650D01*
X47412Y-29558D01*
X47341Y-29488D01*
X47249Y-29450D01*
X47150Y-29449D01*
X46550Y-29449D01*
X46458Y-29487D01*
X46388Y-29558D01*
X46350Y-29650D01*
X46350Y-29672D01*
X46211Y-29534D01*
X46009Y-29450D01*
X45791Y-29449D01*
X45588Y-29533D01*
X45434Y-29688D01*
X45400Y-29769D01*
X45366Y-29688D01*
X45286Y-29608D01*
X47312Y-27582D01*
X47399Y-27600D01*
X47399Y-27599D01*
X47400Y-27600D01*
X47700Y-27600D01*
X49100Y-27600D01*
X49450Y-27600D01*
X49450Y-29800D01*
X49474Y-29925D01*
X49474Y-29925D01*
X49474Y-29984D01*
X49539Y-30140D01*
X49658Y-30260D01*
X49815Y-30324D01*
X49984Y-30325D01*
X50140Y-30260D01*
X50260Y-30141D01*
X50324Y-29984D01*
X50325Y-29827D01*
X50474Y-29927D01*
X50474Y-29927D01*
X50627Y-29958D01*
X50665Y-29966D01*
X50665Y-29965D01*
X50666Y-29966D01*
X51234Y-29966D01*
X51234Y-30106D01*
X51272Y-30197D01*
X51343Y-30268D01*
X51435Y-30306D01*
X51534Y-30306D01*
X52164Y-30306D01*
X52256Y-30268D01*
X52326Y-30198D01*
X52364Y-30106D01*
X52365Y-30006D01*
X52365Y-29966D01*
X53734Y-29966D01*
X53734Y-30106D01*
X53772Y-30197D01*
X53843Y-30268D01*
X53935Y-30306D01*
X54034Y-30306D01*
X54598Y-30306D01*
X54255Y-30649D01*
X53550Y-30649D01*
X53458Y-30687D01*
X53388Y-30758D01*
X53350Y-30850D01*
X53349Y-30949D01*
X53349Y-32549D01*
X53387Y-32641D01*
X53458Y-32711D01*
X53550Y-32749D01*
X53649Y-32750D01*
X55249Y-32750D01*
X55341Y-32712D01*
X55411Y-32641D01*
X55449Y-32549D01*
X55450Y-32450D01*
X55450Y-30850D01*
X55412Y-30758D01*
X55341Y-30688D01*
X55249Y-30650D01*
X55244Y-30650D01*
X55269Y-30625D01*
X55284Y-30625D01*
X55440Y-30560D01*
X55560Y-30441D01*
X55624Y-30284D01*
X55625Y-30115D01*
X55563Y-29966D01*
X56275Y-29966D01*
X56274Y-30084D01*
X56339Y-30240D01*
X56350Y-30250D01*
X56350Y-30649D01*
X55850Y-30649D01*
X55758Y-30687D01*
X55688Y-30758D01*
X55650Y-30850D01*
X55649Y-30949D01*
X55649Y-32549D01*
X55687Y-32641D01*
X55758Y-32711D01*
X55850Y-32749D01*
X55949Y-32750D01*
X57549Y-32750D01*
X57641Y-32712D01*
X57711Y-32641D01*
X57749Y-32549D01*
X57750Y-32450D01*
X57750Y-30850D01*
X57712Y-30758D01*
X57641Y-30688D01*
X57549Y-30650D01*
X57450Y-30649D01*
X57050Y-30649D01*
X57050Y-30251D01*
X57060Y-30241D01*
X57124Y-30084D01*
X57125Y-29966D01*
X69633Y-29966D01*
X69634Y-29966D01*
X69634Y-29966D01*
X69825Y-29927D01*
X69987Y-29819D01*
X70153Y-29653D01*
X70261Y-29491D01*
X70300Y-29300D01*
X70300Y-29300D01*
X70300Y-29299D01*
X70300Y-24100D01*
X70273Y-23968D01*
X70349Y-24044D01*
X70349Y-24949D01*
X70387Y-25041D01*
X70458Y-25111D01*
X70550Y-25149D01*
X70649Y-25150D01*
X72249Y-25150D01*
X72341Y-25112D01*
X72411Y-25041D01*
X72449Y-24949D01*
X72450Y-24850D01*
X72450Y-34049D01*
X72390Y-33906D01*
X72095Y-33610D01*
X71709Y-33450D01*
X71292Y-33449D01*
X70906Y-33609D01*
X70610Y-33904D01*
X70450Y-34290D01*
X70449Y-34707D01*
X70609Y-35094D01*
X70904Y-35389D01*
X71290Y-35549D01*
X71707Y-35550D01*
X72094Y-35390D01*
X72389Y-35095D01*
X72549Y-34709D01*
X72550Y-34292D01*
X72550Y-35950D01*
X53550Y-35950D01*
X53550Y-35050D01*
X53550Y-33450D01*
X53512Y-33358D01*
X53441Y-33288D01*
X53349Y-33250D01*
X53250Y-33249D01*
X52444Y-33249D01*
X51925Y-32730D01*
X51925Y-32715D01*
X51860Y-32559D01*
X51741Y-32439D01*
X51584Y-32375D01*
X51415Y-32374D01*
X51259Y-32439D01*
X51139Y-32558D01*
X51075Y-32715D01*
X51074Y-32884D01*
X51139Y-33040D01*
X51258Y-33160D01*
X51415Y-33224D01*
X51429Y-33224D01*
X51525Y-33320D01*
X51488Y-33358D01*
X51450Y-33450D01*
X51449Y-33549D01*
X51449Y-35149D01*
X51487Y-35241D01*
X51558Y-35311D01*
X51650Y-35349D01*
X51749Y-35350D01*
X53349Y-35350D01*
X53441Y-35312D01*
X53511Y-35241D01*
X53549Y-35149D01*
X53550Y-35050D01*
X53550Y-35950D01*
X51350Y-35950D01*
X51350Y-35050D01*
X51350Y-33450D01*
X51312Y-33358D01*
X51241Y-33288D01*
X51149Y-33250D01*
X51050Y-33249D01*
X50444Y-33249D01*
X49425Y-32230D01*
X49425Y-32215D01*
X49360Y-32059D01*
X49241Y-31939D01*
X49154Y-31904D01*
X49154Y-30581D01*
X49150Y-30488D01*
X49150Y-29391D01*
X49066Y-29188D01*
X48927Y-29050D01*
X48949Y-29050D01*
X49041Y-29012D01*
X49111Y-28941D01*
X49149Y-28849D01*
X49150Y-28750D01*
X49150Y-28150D01*
X49112Y-28058D01*
X49041Y-27988D01*
X48949Y-27950D01*
X48850Y-27949D01*
X48250Y-27949D01*
X48158Y-27987D01*
X48088Y-28058D01*
X48050Y-28150D01*
X48049Y-28249D01*
X48049Y-28849D01*
X48087Y-28941D01*
X48158Y-29011D01*
X48250Y-29049D01*
X48272Y-29049D01*
X48134Y-29188D01*
X48050Y-29390D01*
X48049Y-29608D01*
X48133Y-29811D01*
X48288Y-29965D01*
X48363Y-29997D01*
X48312Y-30018D01*
X48284Y-30114D01*
X48600Y-30429D01*
X48915Y-30114D01*
X48887Y-30018D01*
X48832Y-29999D01*
X48911Y-29966D01*
X49065Y-29811D01*
X49149Y-29609D01*
X49150Y-29391D01*
X49150Y-30488D01*
X49143Y-30363D01*
X49081Y-30212D01*
X48985Y-30184D01*
X48670Y-30500D01*
X48985Y-30815D01*
X49081Y-30787D01*
X49154Y-30581D01*
X49154Y-31904D01*
X49084Y-31875D01*
X48915Y-31874D01*
X48915Y-31875D01*
X48915Y-30885D01*
X48600Y-30570D01*
X48529Y-30641D01*
X48529Y-30500D01*
X48214Y-30184D01*
X48118Y-30212D01*
X48045Y-30418D01*
X48056Y-30636D01*
X48118Y-30787D01*
X48214Y-30815D01*
X48529Y-30500D01*
X48529Y-30641D01*
X48284Y-30885D01*
X48312Y-30981D01*
X48518Y-31054D01*
X48736Y-31043D01*
X48887Y-30981D01*
X48915Y-30885D01*
X48915Y-31875D01*
X48759Y-31939D01*
X48639Y-32058D01*
X48575Y-32215D01*
X48574Y-32384D01*
X48639Y-32540D01*
X48758Y-32660D01*
X48915Y-32724D01*
X48929Y-32724D01*
X49454Y-33249D01*
X49450Y-33249D01*
X49358Y-33287D01*
X49288Y-33358D01*
X49250Y-33450D01*
X49249Y-33549D01*
X49249Y-35149D01*
X49287Y-35241D01*
X49358Y-35311D01*
X49450Y-35349D01*
X49549Y-35350D01*
X51149Y-35350D01*
X51241Y-35312D01*
X51311Y-35241D01*
X51349Y-35149D01*
X51350Y-35050D01*
X51350Y-35950D01*
X42950Y-35950D01*
X42950Y-30387D01*
X42950Y-29800D01*
X42950Y-29700D01*
X42950Y-29112D01*
X42887Y-29050D01*
X42725Y-29049D01*
X42633Y-29087D01*
X42563Y-29158D01*
X42525Y-29250D01*
X42524Y-29349D01*
X42525Y-29637D01*
X42587Y-29700D01*
X42950Y-29700D01*
X42950Y-29800D01*
X42587Y-29800D01*
X42525Y-29862D01*
X42524Y-30150D01*
X42525Y-30249D01*
X42563Y-30341D01*
X42633Y-30412D01*
X42725Y-30450D01*
X42887Y-30450D01*
X42950Y-30387D01*
X42950Y-35950D01*
X42475Y-35950D01*
X42475Y-30150D01*
X42475Y-29250D01*
X42437Y-29158D01*
X42366Y-29088D01*
X42274Y-29050D01*
X42175Y-29049D01*
X41725Y-29049D01*
X41633Y-29087D01*
X41563Y-29158D01*
X41525Y-29250D01*
X41524Y-29349D01*
X41524Y-30249D01*
X41562Y-30341D01*
X41633Y-30411D01*
X41725Y-30449D01*
X41824Y-30450D01*
X42274Y-30450D01*
X42366Y-30412D01*
X42436Y-30341D01*
X42474Y-30249D01*
X42475Y-30150D01*
X42475Y-35950D01*
X42325Y-35950D01*
X42325Y-31065D01*
X42260Y-30909D01*
X42141Y-30789D01*
X41984Y-30725D01*
X41815Y-30724D01*
X41659Y-30789D01*
X41539Y-30908D01*
X41475Y-31065D01*
X41475Y-31079D01*
X41475Y-31079D01*
X41475Y-30150D01*
X41475Y-29250D01*
X41437Y-29158D01*
X41366Y-29088D01*
X41274Y-29050D01*
X41175Y-29049D01*
X40725Y-29049D01*
X40633Y-29087D01*
X40563Y-29158D01*
X40530Y-29235D01*
X39647Y-28352D01*
X39533Y-28276D01*
X39400Y-28250D01*
X38725Y-28250D01*
X38725Y-23650D01*
X38725Y-22750D01*
X38687Y-22658D01*
X38616Y-22588D01*
X38524Y-22550D01*
X38425Y-22549D01*
X37975Y-22549D01*
X37883Y-22587D01*
X37813Y-22658D01*
X37775Y-22750D01*
X37774Y-22849D01*
X37774Y-23749D01*
X37812Y-23841D01*
X37883Y-23911D01*
X37900Y-23918D01*
X37900Y-24205D01*
X37230Y-24874D01*
X37215Y-24874D01*
X37059Y-24939D01*
X36939Y-25058D01*
X36875Y-25215D01*
X36874Y-25384D01*
X36939Y-25540D01*
X37058Y-25660D01*
X37215Y-25724D01*
X37384Y-25725D01*
X37540Y-25660D01*
X37660Y-25541D01*
X37724Y-25384D01*
X37724Y-25370D01*
X38497Y-24597D01*
X38573Y-24483D01*
X38600Y-24350D01*
X38600Y-23918D01*
X38616Y-23912D01*
X38686Y-23841D01*
X38724Y-23749D01*
X38725Y-23650D01*
X38725Y-28250D01*
X36165Y-28250D01*
X36165Y-22006D01*
X36165Y-20725D01*
X36127Y-20634D01*
X36056Y-20563D01*
X35964Y-20525D01*
X35865Y-20525D01*
X35712Y-20525D01*
X35650Y-20588D01*
X35650Y-21316D01*
X36102Y-21316D01*
X36165Y-21253D01*
X36165Y-20725D01*
X36165Y-22006D01*
X36165Y-21478D01*
X36102Y-21416D01*
X35650Y-21416D01*
X35650Y-22144D01*
X35712Y-22206D01*
X35865Y-22206D01*
X35964Y-22206D01*
X36056Y-22168D01*
X36127Y-22097D01*
X36165Y-22006D01*
X36165Y-28250D01*
X35851Y-28250D01*
X35841Y-28239D01*
X35684Y-28175D01*
X35550Y-28174D01*
X35550Y-22144D01*
X35550Y-21416D01*
X35550Y-21316D01*
X35550Y-20588D01*
X35487Y-20525D01*
X35334Y-20525D01*
X35235Y-20525D01*
X35143Y-20563D01*
X35072Y-20634D01*
X35034Y-20725D01*
X35035Y-21253D01*
X35097Y-21316D01*
X35550Y-21316D01*
X35550Y-21416D01*
X35097Y-21416D01*
X35035Y-21478D01*
X35034Y-22006D01*
X35072Y-22097D01*
X35143Y-22168D01*
X35235Y-22206D01*
X35334Y-22206D01*
X35487Y-22206D01*
X35550Y-22144D01*
X35550Y-28174D01*
X35515Y-28174D01*
X35359Y-28239D01*
X35239Y-28358D01*
X35175Y-28515D01*
X35174Y-28684D01*
X35239Y-28840D01*
X35358Y-28960D01*
X35515Y-29024D01*
X35684Y-29025D01*
X35840Y-28960D01*
X35850Y-28950D01*
X36702Y-28950D01*
X36675Y-29015D01*
X36675Y-29029D01*
X34952Y-30752D01*
X34887Y-30849D01*
X34350Y-30849D01*
X34258Y-30887D01*
X34250Y-30896D01*
X34250Y-21499D01*
X34250Y-20800D01*
X34212Y-20708D01*
X34141Y-20638D01*
X34049Y-20600D01*
X33950Y-20599D01*
X33712Y-20600D01*
X33650Y-20662D01*
X33650Y-21100D01*
X34187Y-21100D01*
X34250Y-21037D01*
X34250Y-20800D01*
X34250Y-21499D01*
X34250Y-21262D01*
X34187Y-21200D01*
X33650Y-21200D01*
X33650Y-21637D01*
X33712Y-21700D01*
X33950Y-21700D01*
X34049Y-21699D01*
X34141Y-21661D01*
X34212Y-21591D01*
X34250Y-21499D01*
X34250Y-30896D01*
X34188Y-30958D01*
X34150Y-31050D01*
X34149Y-31149D01*
X34149Y-32749D01*
X34187Y-32841D01*
X34258Y-32911D01*
X34350Y-32949D01*
X34449Y-32950D01*
X36049Y-32950D01*
X36141Y-32912D01*
X36211Y-32841D01*
X36249Y-32749D01*
X36250Y-32650D01*
X36250Y-31050D01*
X36212Y-30958D01*
X36141Y-30888D01*
X36049Y-30850D01*
X35950Y-30849D01*
X35845Y-30849D01*
X37169Y-29525D01*
X37184Y-29525D01*
X37340Y-29460D01*
X37350Y-29450D01*
X37350Y-30949D01*
X36850Y-30949D01*
X36758Y-30987D01*
X36688Y-31058D01*
X36650Y-31150D01*
X36649Y-31249D01*
X36649Y-32849D01*
X36687Y-32941D01*
X36758Y-33011D01*
X36850Y-33049D01*
X36949Y-33050D01*
X38549Y-33050D01*
X38641Y-33012D01*
X38711Y-32941D01*
X38749Y-32849D01*
X38750Y-32750D01*
X38750Y-31150D01*
X38712Y-31058D01*
X38641Y-30988D01*
X38549Y-30950D01*
X38450Y-30949D01*
X38050Y-30949D01*
X38050Y-29351D01*
X38060Y-29341D01*
X38124Y-29184D01*
X38125Y-29015D01*
X38097Y-28950D01*
X39255Y-28950D01*
X40302Y-29997D01*
X40302Y-29997D01*
X40416Y-30073D01*
X40524Y-30095D01*
X40524Y-30249D01*
X40562Y-30341D01*
X40633Y-30411D01*
X40725Y-30449D01*
X40824Y-30450D01*
X41274Y-30450D01*
X41366Y-30412D01*
X41436Y-30341D01*
X41474Y-30249D01*
X41475Y-30150D01*
X41475Y-31079D01*
X40852Y-31702D01*
X40820Y-31749D01*
X40250Y-31749D01*
X40158Y-31787D01*
X40088Y-31858D01*
X40050Y-31950D01*
X40049Y-32049D01*
X40049Y-33649D01*
X40087Y-33741D01*
X40158Y-33811D01*
X40250Y-33849D01*
X40349Y-33850D01*
X41949Y-33850D01*
X42041Y-33812D01*
X42111Y-33741D01*
X42149Y-33649D01*
X42150Y-33550D01*
X42150Y-31950D01*
X42112Y-31858D01*
X42041Y-31788D01*
X41949Y-31750D01*
X41850Y-31749D01*
X41795Y-31749D01*
X41969Y-31575D01*
X41984Y-31575D01*
X42140Y-31510D01*
X42260Y-31391D01*
X42324Y-31234D01*
X42325Y-31065D01*
X42325Y-35950D01*
X33550Y-35950D01*
X33550Y-21637D01*
X33550Y-21200D01*
X33550Y-21100D01*
X33550Y-20662D01*
X33487Y-20600D01*
X33249Y-20599D01*
X33150Y-20600D01*
X33058Y-20638D01*
X32987Y-20708D01*
X32949Y-20800D01*
X32950Y-21037D01*
X33012Y-21100D01*
X33550Y-21100D01*
X33550Y-21200D01*
X33012Y-21200D01*
X32950Y-21262D01*
X32949Y-21499D01*
X32987Y-21591D01*
X33058Y-21661D01*
X33150Y-21699D01*
X33249Y-21700D01*
X33487Y-21700D01*
X33550Y-21637D01*
X33550Y-35950D01*
X32550Y-35950D01*
X32550Y-34292D01*
X32550Y-34291D01*
X32550Y-24850D01*
X32550Y-23349D01*
X32549Y-23250D01*
X32511Y-23158D01*
X32441Y-23087D01*
X32349Y-23049D01*
X31612Y-23050D01*
X31550Y-23112D01*
X31550Y-24050D01*
X32487Y-24050D01*
X32550Y-23987D01*
X32550Y-23349D01*
X32550Y-24850D01*
X32550Y-24212D01*
X32487Y-24150D01*
X31550Y-24150D01*
X31550Y-25087D01*
X31612Y-25150D01*
X32349Y-25150D01*
X32441Y-25112D01*
X32511Y-25041D01*
X32549Y-24949D01*
X32550Y-24850D01*
X32550Y-34291D01*
X32390Y-33906D01*
X32095Y-33610D01*
X31709Y-33450D01*
X31450Y-33449D01*
X31450Y-25087D01*
X31450Y-24150D01*
X31450Y-24050D01*
X31450Y-23112D01*
X31387Y-23050D01*
X30650Y-23049D01*
X30558Y-23087D01*
X30488Y-23158D01*
X30450Y-23250D01*
X30449Y-23349D01*
X30450Y-23987D01*
X30512Y-24050D01*
X31450Y-24050D01*
X31450Y-24150D01*
X30512Y-24150D01*
X30450Y-24212D01*
X30449Y-24850D01*
X30450Y-24949D01*
X30488Y-25041D01*
X30558Y-25112D01*
X30650Y-25150D01*
X31387Y-25150D01*
X31450Y-25087D01*
X31450Y-33449D01*
X31292Y-33449D01*
X30906Y-33609D01*
X30610Y-33904D01*
X30450Y-34290D01*
X30449Y-34707D01*
X30609Y-35094D01*
X30904Y-35389D01*
X31290Y-35549D01*
X31707Y-35550D01*
X32094Y-35390D01*
X32389Y-35095D01*
X32549Y-34709D01*
X32550Y-34292D01*
X32550Y-35950D01*
X30050Y-35950D01*
X30050Y-12050D01*
X72950Y-12050D01*
X72950Y-35950D01*
M02*
