M48
;DRILL file {Pcbnew (2013-07-07 BZR 4022)-stable} date 10/6/2014 4:48:27 PM
;FORMAT={-:-/ absolute / inch / decimal}
FMAT,2
INCH,TZ
T1C0.025
T2C0.040
T3C0.120
%
G90
G05
M72
T1
X3.38Y-1.73
X3.415Y-2.825
X3.56Y-2.86
X3.7Y-2.71
X3.71Y-2.91
X3.73Y-2.53
X3.77Y-2.91
X4.07Y-1.47
X4.17Y-2.35
X4.19Y-3.115
X4.77Y-2.61
X4.875Y-3.31
X4.9Y-3.23
X4.92Y-2.64
X4.99Y-2.99
X5.1Y-2.27
X5.15Y-3.28
X5.28Y-2.53
X5.31Y-2.66
X5.36Y-2.48
X5.5Y-2.37
X5.52Y-2.18
X5.52Y-3.02
X5.67Y-2.15
X5.67Y-3.
X6.62Y-2.31
X6.7Y-2.18
X6.8Y-2.455
X6.89Y-2.66
X6.91Y-2.46
X7.Y-2.23
X7.01Y-2.33
T2
X4.49Y-3.
X4.59Y-3.
X4.69Y-3.
X4.86Y-2.85
X4.86Y-2.95
X4.86Y-3.05
T3
X3.15Y-3.45
X3.65Y-1.35
X7.15Y-1.35
X7.15Y-3.45
T0
M30
